<?xml version="1.0" encoding="utf-8"?>
<!-- Generator: Adobe Illustrator 16.0.0, SVG Export Plug-In . SVG Version: 6.00 Build 0)  -->
<!DOCTYPE svg PUBLIC "-//W3C//DTD SVG 1.1//EN" "http://www.w3.org/Graphics/SVG/1.1/DTD/svg11.dtd">
<svg version="1.1" xmlns="http://www.w3.org/2000/svg" xmlns:xlink="http://www.w3.org/1999/xlink" x="0px" y="0px" width="649px"
	 height="467px" viewBox="0 0 649 467" enable-background="new 0 0 649 467" xml:space="preserve">
<g id="Layer_2">
</g>
<g id="Layer_1">
	<rect x="470.5" y="-21.5" display="none" fill="none" stroke="#000000" stroke-miterlimit="10" width="5" height="5"/>
	<rect x="424.5" y="8.905" display="none" fill="none" stroke="#000000" stroke-miterlimit="10" width="4.595" height="4.595"/>
	<g>
		<g>
			<polygon fill="#E6E6E6" stroke="#000000" stroke-miterlimit="10" points="226.866,368.331 226.866,406.26 185.755,406.26 
				185.755,358.773 217.31,358.773 217.31,368.331 			"/>
			<polygon fill="#E6E6E6" stroke="#000000" stroke-linejoin="bevel" stroke-miterlimit="10" points="226.866,368.331 
				217.31,368.331 217.31,358.773 			"/>
		</g>
		<g>
			<path d="M198.438,371.246h-1.134l-0.532-1.665h-3.18l-0.538,1.665h-1.081l2.537-7.639h1.426L198.438,371.246z M196.475,368.651
				l-1.292-4.085l-1.292,4.085H196.475z"/>
			<path d="M204.435,368.961c0,0.367-0.071,0.691-0.213,0.974c-0.142,0.282-0.345,0.521-0.608,0.716
				c-0.263,0.195-0.581,0.343-0.953,0.444c-0.372,0.101-0.786,0.151-1.242,0.151h-1.999v-7.639h2.186
				c1.703,0,2.554,0.619,2.554,1.859c0,0.412-0.099,0.768-0.295,1.063c-0.197,0.297-0.517,0.518-0.961,0.661
				c0.207,0.039,0.402,0.104,0.587,0.198s0.348,0.215,0.488,0.363c0.14,0.147,0.251,0.323,0.333,0.525
				C204.394,368.48,204.435,368.708,204.435,368.961z M203.079,365.606c0-0.155-0.023-0.303-0.07-0.44
				c-0.047-0.139-0.129-0.258-0.246-0.357c-0.117-0.1-0.275-0.178-0.474-0.236s-0.45-0.088-0.754-0.088h-1.075v2.391h1.04
				c0.238,0,0.453-0.025,0.646-0.076s0.358-0.129,0.497-0.234c0.139-0.104,0.246-0.236,0.322-0.395
				C203.041,366.013,203.079,365.824,203.079,365.606z M203.331,368.996c0-0.194-0.041-0.369-0.123-0.525
				c-0.082-0.156-0.201-0.287-0.357-0.395s-0.346-0.19-0.57-0.248c-0.224-0.059-0.476-0.088-0.757-0.088h-1.063v2.63h1.099
				c0.596,0,1.041-0.111,1.333-0.333C203.185,369.814,203.331,369.468,203.331,368.996z"/>
			<path d="M210.894,370.96c-0.612,0.253-1.253,0.38-1.923,0.38c-1.08,0-1.908-0.322-2.487-0.967s-0.868-1.599-0.868-2.861
				c0-0.611,0.08-1.165,0.24-1.66c0.16-0.494,0.388-0.914,0.684-1.259c0.296-0.345,0.655-0.61,1.076-0.798s0.892-0.281,1.415-0.281
				c0.354,0,0.684,0.031,0.987,0.092c0.304,0.06,0.596,0.152,0.877,0.277v1.022c-0.277-0.151-0.563-0.269-0.859-0.348
				c-0.296-0.08-0.619-0.12-0.97-0.12c-0.358,0-0.683,0.067-0.973,0.201c-0.29,0.135-0.537,0.33-0.739,0.585
				s-0.358,0.567-0.467,0.935c-0.109,0.369-0.164,0.789-0.164,1.26c0,0.99,0.201,1.736,0.602,2.238
				c0.401,0.504,0.99,0.754,1.765,0.754c0.328,0,0.641-0.037,0.941-0.113c0.3-0.076,0.588-0.182,0.865-0.318V370.96z"/>
			<path d="M197.731,385.324c-0.612,0.253-1.253,0.38-1.923,0.38c-1.08,0-1.908-0.323-2.487-0.968s-0.868-1.598-0.868-2.861
				c0-0.611,0.08-1.164,0.24-1.659s0.388-0.915,0.684-1.259c0.296-0.346,0.655-0.611,1.076-0.799c0.421-0.187,0.892-0.28,1.415-0.28
				c0.354,0,0.684,0.03,0.987,0.091c0.304,0.061,0.596,0.152,0.877,0.277v1.023c-0.277-0.152-0.563-0.269-0.859-0.348
				c-0.296-0.08-0.619-0.121-0.97-0.121c-0.358,0-0.683,0.068-0.973,0.202c-0.29,0.135-0.537,0.329-0.739,0.585
				c-0.203,0.255-0.358,0.566-0.467,0.935c-0.109,0.368-0.164,0.788-0.164,1.26c0,0.989,0.201,1.735,0.602,2.238
				s0.99,0.754,1.765,0.754c0.328,0,0.641-0.038,0.941-0.114c0.3-0.076,0.588-0.182,0.865-0.318V385.324z"/>
			<path d="M204.313,385.324c-0.612,0.253-1.253,0.38-1.923,0.38c-1.08,0-1.908-0.323-2.487-0.968s-0.868-1.598-0.868-2.861
				c0-0.611,0.08-1.164,0.24-1.659s0.388-0.915,0.684-1.259c0.296-0.346,0.655-0.611,1.076-0.799c0.421-0.187,0.892-0.28,1.415-0.28
				c0.354,0,0.684,0.03,0.987,0.091c0.304,0.061,0.596,0.152,0.877,0.277v1.023c-0.277-0.152-0.563-0.269-0.859-0.348
				c-0.296-0.08-0.619-0.121-0.97-0.121c-0.358,0-0.683,0.068-0.973,0.202c-0.29,0.135-0.537,0.329-0.739,0.585
				c-0.203,0.255-0.358,0.566-0.467,0.935c-0.109,0.368-0.164,0.788-0.164,1.26c0,0.989,0.201,1.735,0.602,2.238
				s0.99,0.754,1.765,0.754c0.328,0,0.641-0.038,0.941-0.114c0.3-0.076,0.588-0.182,0.865-0.318V385.324z"/>
			<path d="M211.601,385.61h-1.134l-0.532-1.665h-3.18l-0.538,1.665h-1.081l2.537-7.639h1.426L211.601,385.61z M209.637,383.016
				l-1.292-4.086l-1.292,4.086H209.637z"/>
			<path d="M197.767,393.281l-3.203,6.692H193.4l3.326-6.692H192.6v-0.946h5.167V393.281z"/>
			<path d="M204.564,396.157c0,0.585-0.059,1.117-0.176,1.599c-0.117,0.48-0.294,0.895-0.532,1.238
				c-0.238,0.346-0.533,0.612-0.885,0.801c-0.353,0.189-0.767,0.283-1.242,0.283c-0.409,0-0.781-0.076-1.116-0.23
				c-0.335-0.153-0.622-0.391-0.859-0.71c-0.237-0.319-0.42-0.727-0.549-1.222c-0.128-0.494-0.193-1.081-0.193-1.759
				c0-0.585,0.06-1.118,0.178-1.602c0.119-0.483,0.296-0.897,0.532-1.241c0.235-0.346,0.531-0.612,0.885-0.801
				c0.354-0.189,0.768-0.284,1.239-0.284c0.409,0,0.781,0.077,1.116,0.231c0.335,0.153,0.622,0.391,0.859,0.713
				c0.238,0.321,0.421,0.729,0.55,1.225C204.5,394.893,204.564,395.479,204.564,396.157z M200.04,396.122
				c0,0.12,0.001,0.241,0.003,0.362s0.009,0.238,0.021,0.351l3.232-2.39c-0.059-0.199-0.132-0.381-0.222-0.544
				c-0.089-0.164-0.197-0.306-0.321-0.424c-0.125-0.119-0.267-0.212-0.427-0.278c-0.16-0.065-0.339-0.099-0.538-0.099
				c-0.265,0-0.505,0.063-0.722,0.192s-0.4,0.32-0.552,0.576c-0.152,0.255-0.269,0.57-0.351,0.947
				C200.081,395.191,200.04,395.627,200.04,396.122z M203.535,396.192c0-0.133-0.005-0.265-0.015-0.395
				c-0.01-0.131-0.021-0.259-0.032-0.383l-3.232,2.401c0.059,0.203,0.132,0.391,0.222,0.562c0.089,0.172,0.198,0.319,0.324,0.441
				s0.271,0.218,0.433,0.286s0.346,0.103,0.552,0.103c0.265,0,0.505-0.064,0.722-0.192c0.216-0.129,0.4-0.32,0.552-0.573
				c0.152-0.253,0.269-0.567,0.351-0.944C203.494,397.123,203.535,396.688,203.535,396.192z"/>
			<path d="M211.542,391.715l-5.389,8.259h-0.958l5.377-8.259H211.542z M208.427,393.352c0,0.254-0.037,0.488-0.111,0.705
				c-0.074,0.216-0.18,0.402-0.318,0.561s-0.306,0.282-0.503,0.374c-0.197,0.091-0.416,0.138-0.657,0.138
				c-0.238,0-0.451-0.037-0.64-0.111s-0.351-0.184-0.485-0.33c-0.135-0.146-0.238-0.326-0.31-0.541
				c-0.072-0.215-0.108-0.461-0.108-0.742c0-0.25,0.037-0.482,0.111-0.698c0.074-0.216,0.18-0.404,0.319-0.563
				c0.138-0.16,0.306-0.285,0.502-0.375s0.416-0.135,0.658-0.135c0.237,0,0.451,0.037,0.64,0.111s0.351,0.184,0.485,0.328
				c0.134,0.144,0.237,0.322,0.31,0.537S208.427,393.071,208.427,393.352z M207.568,393.381c0-0.343-0.063-0.596-0.187-0.76
				s-0.298-0.246-0.52-0.246c-0.113,0-0.213,0.025-0.301,0.076c-0.087,0.051-0.162,0.121-0.222,0.211
				c-0.06,0.09-0.106,0.195-0.137,0.318s-0.047,0.256-0.047,0.4c0,0.343,0.063,0.596,0.187,0.76
				c0.125,0.164,0.298,0.246,0.521,0.246c0.113,0,0.213-0.025,0.301-0.076c0.088-0.051,0.162-0.121,0.222-0.211
				s0.106-0.195,0.137-0.318S207.568,393.525,207.568,393.381z M211.449,398.285c0,0.253-0.038,0.486-0.114,0.701
				c-0.076,0.214-0.184,0.4-0.322,0.561s-0.306,0.285-0.502,0.374c-0.197,0.09-0.416,0.135-0.658,0.135
				c-0.238,0-0.451-0.037-0.64-0.111c-0.189-0.073-0.351-0.183-0.485-0.327s-0.238-0.324-0.31-0.541
				c-0.072-0.216-0.108-0.465-0.108-0.744c0-0.25,0.037-0.482,0.111-0.699c0.074-0.217,0.18-0.404,0.318-0.564
				c0.138-0.159,0.306-0.283,0.502-0.373s0.416-0.135,0.658-0.135c0.238,0,0.452,0.037,0.643,0.111s0.354,0.184,0.488,0.33
				s0.238,0.326,0.31,0.541C211.413,397.757,211.449,398.004,211.449,398.285z M210.589,398.309c0-0.344-0.063-0.597-0.19-0.76
				c-0.126-0.164-0.301-0.246-0.523-0.246c-0.113,0-0.213,0.025-0.301,0.076c-0.088,0.051-0.162,0.121-0.222,0.21
				c-0.061,0.09-0.106,0.196-0.137,0.319c-0.031,0.122-0.047,0.256-0.047,0.4c0,0.342,0.062,0.596,0.187,0.76
				c0.125,0.163,0.298,0.244,0.52,0.244c0.113,0,0.213-0.024,0.301-0.075c0.087-0.051,0.163-0.12,0.225-0.21
				c0.063-0.09,0.109-0.196,0.141-0.318C210.574,398.586,210.589,398.452,210.589,398.309z"/>
		</g>
	</g>
	<g>
		<rect x="548.505" y="276.185" fill="#FFFFFF" stroke="#000000" stroke-miterlimit="10" width="39.54" height="68"/>
		<rect x="588.045" y="276.185" fill="#FFFFFF" stroke="#000000" stroke-miterlimit="10" width="4.44" height="68"/>
		<polygon points="577.161,319.066 559.389,319.066 568.274,301.293 		"/>
		<rect x="588.045" y="276.185" width="4.44" height="68"/>
	</g>
	<g>
		<rect x="436.212" y="278.478" fill="#FFFFFF" stroke="#000000" stroke-miterlimit="10" width="68" height="39.54"/>
		<rect x="436.212" y="318.018" fill="#FFFFFF" stroke="#000000" stroke-miterlimit="10" width="68" height="4.44"/>
		<polygon points="461.331,307.134 461.331,289.361 479.103,298.247 		"/>
		<rect x="436.212" y="318.018" fill="#E6E6E6" stroke="#000000" stroke-miterlimit="10" width="68" height="4.44"/>
		<rect x="436.212" y="318.018" stroke="#000000" stroke-miterlimit="10" width="8.31" height="4.44"/>
	</g>
	<g>
		<path d="M425.732,338.893l-2.639-8.084h1.127l1.259,3.982c0.348,1.092,0.648,2.074,0.864,3.021h0.024
			c0.228-0.935,0.563-1.954,0.923-3.01l1.367-3.994h1.116l-2.891,8.084H425.732z"/>
		<path d="M431.601,331.457c0.012,0.359-0.252,0.647-0.671,0.647c-0.372,0-0.636-0.288-0.636-0.647c0-0.372,0.276-0.66,0.66-0.66
			C431.349,330.797,431.601,331.085,431.601,331.457z M430.425,338.893v-5.805h1.056v5.805H430.425z"/>
		<path d="M433.089,337.813c0.312,0.205,0.864,0.42,1.392,0.42c0.768,0,1.127-0.383,1.127-0.863c0-0.504-0.3-0.779-1.079-1.067
			c-1.043-0.372-1.535-0.947-1.535-1.644c0-0.935,0.755-1.702,2.003-1.702c0.587,0,1.103,0.167,1.427,0.359l-0.264,0.768
			c-0.228-0.144-0.647-0.335-1.187-0.335c-0.624,0-0.972,0.359-0.972,0.791c0,0.479,0.348,0.695,1.104,0.983
			c1.007,0.384,1.523,0.888,1.523,1.751c0,1.02-0.792,1.739-2.171,1.739c-0.635,0-1.223-0.156-1.631-0.396L433.089,337.813z"/>
		<path d="M442.843,337.31c0,0.6,0.012,1.128,0.048,1.583h-0.936l-0.06-0.947h-0.024c-0.276,0.468-0.887,1.079-1.919,1.079
			c-0.911,0-2.003-0.503-2.003-2.542v-3.395h1.056v3.214c0,1.104,0.336,1.847,1.295,1.847c0.708,0,1.199-0.491,1.391-0.959
			c0.06-0.156,0.096-0.348,0.096-0.539v-3.563h1.056V337.31z"/>
		<path d="M447.812,338.893l-0.084-0.731h-0.036c-0.324,0.456-0.947,0.863-1.775,0.863c-1.175,0-1.775-0.827-1.775-1.667
			c0-1.403,1.247-2.171,3.49-2.158v-0.121c0-0.479-0.132-1.343-1.319-1.343c-0.54,0-1.104,0.168-1.511,0.432l-0.24-0.695
			c0.48-0.312,1.175-0.516,1.907-0.516c1.775,0,2.207,1.211,2.207,2.374v2.172c0,0.503,0.024,0.994,0.096,1.391H447.812z
			 M447.655,335.93c-1.151-0.023-2.458,0.181-2.458,1.308c0,0.684,0.456,1.008,0.996,1.008c0.755,0,1.235-0.479,1.403-0.972
			c0.036-0.107,0.06-0.229,0.06-0.336V335.93z"/>
		<path d="M450.381,330.377h1.056v8.516h-1.056V330.377z"/>
		<path d="M454.389,331.457c0.012,0.359-0.252,0.647-0.671,0.647c-0.372,0-0.636-0.288-0.636-0.647c0-0.372,0.276-0.66,0.66-0.66
			C454.137,330.797,454.389,331.085,454.389,331.457z M453.213,338.893v-5.805h1.056v5.805H453.213z"/>
		<path d="M455.877,337.813c0.312,0.205,0.864,0.42,1.392,0.42c0.768,0,1.127-0.383,1.127-0.863c0-0.504-0.3-0.779-1.079-1.067
			c-1.043-0.372-1.535-0.947-1.535-1.644c0-0.935,0.755-1.702,2.003-1.702c0.587,0,1.104,0.167,1.427,0.359l-0.264,0.768
			c-0.228-0.144-0.647-0.335-1.187-0.335c-0.624,0-0.972,0.359-0.972,0.791c0,0.479,0.348,0.695,1.104,0.983
			c1.007,0.384,1.523,0.888,1.523,1.751c0,1.02-0.792,1.739-2.171,1.739c-0.635,0-1.223-0.156-1.631-0.396L455.877,337.813z"/>
		<path d="M463.987,338.893l-0.084-0.731h-0.036c-0.324,0.456-0.947,0.863-1.775,0.863c-1.175,0-1.775-0.827-1.775-1.667
			c0-1.403,1.247-2.171,3.49-2.158v-0.121c0-0.479-0.132-1.343-1.319-1.343c-0.54,0-1.104,0.168-1.511,0.432l-0.24-0.695
			c0.48-0.312,1.175-0.516,1.907-0.516c1.775,0,2.207,1.211,2.207,2.374v2.172c0,0.503,0.024,0.994,0.096,1.391H463.987z
			 M463.831,335.93c-1.151-0.023-2.458,0.181-2.458,1.308c0,0.684,0.456,1.008,0.996,1.008c0.755,0,1.235-0.479,1.403-0.972
			c0.036-0.107,0.06-0.229,0.06-0.336V335.93z"/>
		<path d="M467.78,331.421v1.667h1.511v0.803h-1.511v3.131c0,0.72,0.204,1.127,0.792,1.127c0.276,0,0.479-0.035,0.612-0.071
			l0.048,0.792c-0.204,0.084-0.528,0.144-0.936,0.144c-0.492,0-0.888-0.156-1.14-0.444c-0.3-0.312-0.408-0.827-0.408-1.511v-3.167
			h-0.899v-0.803h0.899v-1.392L467.78,331.421z"/>
		<path d="M471.656,331.457c0.012,0.359-0.252,0.647-0.671,0.647c-0.372,0-0.636-0.288-0.636-0.647c0-0.372,0.276-0.66,0.66-0.66
			C471.404,330.797,471.656,331.085,471.656,331.457z M470.481,338.893v-5.805h1.056v5.805H470.481z"/>
		<path d="M478.542,335.942c0,2.146-1.487,3.082-2.89,3.082c-1.571,0-2.783-1.151-2.783-2.986c0-1.942,1.271-3.082,2.878-3.082
			C477.415,332.956,478.542,334.167,478.542,335.942z M473.936,336.002c0,1.271,0.732,2.23,1.763,2.23
			c1.007,0,1.763-0.947,1.763-2.254c0-0.984-0.492-2.23-1.739-2.23C474.476,333.748,473.936,334.898,473.936,336.002z"/>
		<path d="M479.877,334.658c0-0.6-0.012-1.091-0.048-1.57h0.936l0.06,0.959h0.024c0.288-0.551,0.959-1.091,1.919-1.091
			c0.803,0,2.051,0.479,2.051,2.47v3.467h-1.056v-3.346c0-0.936-0.348-1.715-1.343-1.715c-0.695,0-1.235,0.491-1.415,1.078
			c-0.048,0.133-0.072,0.313-0.072,0.492v3.49h-1.056V334.658z"/>
		<path d="M489.188,338.893v-5.002h-0.815v-0.803h0.815v-0.275c0-0.816,0.18-1.56,0.672-2.027c0.396-0.384,0.923-0.54,1.415-0.54
			c0.372,0,0.696,0.084,0.899,0.168l-0.144,0.815c-0.156-0.072-0.372-0.132-0.671-0.132c-0.899,0-1.127,0.792-1.127,1.679v0.313
			h1.403v0.803h-1.403v5.002H489.188z"/>
		<path d="M492.584,334.898c0-0.684-0.012-1.271-0.048-1.811h0.923l0.036,1.139h0.048c0.264-0.779,0.899-1.271,1.607-1.271
			c0.12,0,0.204,0.012,0.3,0.036v0.995c-0.108-0.024-0.216-0.036-0.36-0.036c-0.744,0-1.271,0.564-1.416,1.355
			c-0.024,0.145-0.048,0.312-0.048,0.492v3.094h-1.043V334.898z"/>
		<path d="M499.663,338.893l-0.084-0.731h-0.036c-0.324,0.456-0.947,0.863-1.775,0.863c-1.175,0-1.775-0.827-1.775-1.667
			c0-1.403,1.247-2.171,3.49-2.158v-0.121c0-0.479-0.132-1.343-1.319-1.343c-0.54,0-1.104,0.168-1.511,0.432l-0.24-0.695
			c0.48-0.312,1.175-0.516,1.907-0.516c1.775,0,2.207,1.211,2.207,2.374v2.172c0,0.503,0.024,0.994,0.096,1.391H499.663z
			 M499.507,335.93c-1.151-0.023-2.458,0.181-2.458,1.308c0,0.684,0.456,1.008,0.996,1.008c0.755,0,1.235-0.479,1.403-0.972
			c0.036-0.107,0.06-0.229,0.06-0.336V335.93z"/>
		<path d="M502.232,334.658c0-0.6-0.012-1.091-0.048-1.57h0.923l0.048,0.936h0.036c0.324-0.552,0.864-1.067,1.823-1.067
			c0.792,0,1.391,0.479,1.643,1.163h0.024c0.18-0.324,0.408-0.576,0.647-0.756c0.348-0.264,0.731-0.407,1.283-0.407
			c0.768,0,1.907,0.503,1.907,2.519v3.418h-1.032v-3.286c0-1.115-0.408-1.787-1.259-1.787c-0.6,0-1.067,0.444-1.247,0.96
			c-0.048,0.144-0.084,0.336-0.084,0.527v3.586h-1.032v-3.479c0-0.923-0.408-1.595-1.211-1.595c-0.66,0-1.14,0.528-1.308,1.056
			c-0.06,0.156-0.084,0.336-0.084,0.516v3.502h-1.031V334.658z"/>
		<path d="M512.829,336.182c0.024,1.428,0.935,2.016,1.991,2.016c0.755,0,1.211-0.133,1.607-0.301l0.18,0.756
			c-0.372,0.168-1.007,0.36-1.931,0.36c-1.787,0-2.854-1.176-2.854-2.927s1.032-3.13,2.723-3.13c1.895,0,2.399,1.667,2.399,2.734
			c0,0.216-0.024,0.384-0.036,0.491H512.829z M515.923,335.426c0.012-0.671-0.276-1.715-1.463-1.715
			c-1.067,0-1.535,0.984-1.619,1.715H515.923z"/>
	</g>
	<g>
		<path d="M177.456,330.875h-2.459v-0.887h5.985v0.887h-2.471v7.196h-1.055V330.875z"/>
		<path d="M181.308,334.078c0-0.684-0.012-1.271-0.048-1.812h0.923l0.036,1.14h0.048c0.264-0.779,0.899-1.271,1.607-1.271
			c0.12,0,0.204,0.012,0.3,0.035v0.996c-0.108-0.023-0.216-0.036-0.359-0.036c-0.744,0-1.271,0.563-1.416,1.355
			c-0.024,0.144-0.048,0.312-0.048,0.491v3.095h-1.043V334.078z"/>
		<path d="M188.387,338.071l-0.084-0.731h-0.036c-0.324,0.455-0.947,0.863-1.775,0.863c-1.175,0-1.775-0.828-1.775-1.667
			c0-1.403,1.247-2.171,3.49-2.159v-0.119c0-0.48-0.132-1.344-1.319-1.344c-0.54,0-1.103,0.168-1.511,0.432l-0.24-0.695
			c0.48-0.313,1.176-0.516,1.907-0.516c1.775,0,2.207,1.211,2.207,2.375v2.17c0,0.504,0.024,0.996,0.096,1.392H188.387z
			 M188.231,335.109c-1.151-0.024-2.459,0.18-2.459,1.307c0,0.684,0.456,1.008,0.996,1.008c0.755,0,1.235-0.48,1.403-0.972
			c0.036-0.108,0.06-0.228,0.06-0.336V335.109z"/>
		<path d="M192.131,330.635c0.012,0.36-0.252,0.648-0.671,0.648c-0.372,0-0.636-0.288-0.636-0.648c0-0.371,0.276-0.659,0.66-0.659
			C191.879,329.976,192.131,330.264,192.131,330.635z M190.956,338.071v-5.805h1.056v5.805H190.956z"/>
		<path d="M193.764,333.838c0-0.6-0.012-1.092-0.048-1.571h0.936l0.06,0.96h0.024c0.288-0.553,0.959-1.092,1.919-1.092
			c0.803,0,2.051,0.479,2.051,2.471v3.466h-1.056v-3.347c0-0.936-0.348-1.715-1.343-1.715c-0.695,0-1.235,0.492-1.415,1.08
			c-0.048,0.131-0.072,0.312-0.072,0.491v3.49h-1.056V333.838z"/>
		<path d="M201.012,335.361c0.024,1.427,0.935,2.014,1.991,2.014c0.755,0,1.211-0.131,1.607-0.299l0.18,0.756
			c-0.372,0.168-1.007,0.359-1.931,0.359c-1.787,0-2.854-1.176-2.854-2.927s1.032-3.13,2.723-3.13c1.895,0,2.399,1.667,2.399,2.734
			c0,0.216-0.024,0.384-0.036,0.492H201.012z M204.106,334.605c0.012-0.672-0.276-1.715-1.463-1.715
			c-1.067,0-1.535,0.982-1.619,1.715H204.106z"/>
		<path d="M211.449,329.557v7.016c0,0.516,0.012,1.104,0.048,1.499h-0.947l-0.048-1.007h-0.024
			c-0.324,0.646-1.032,1.139-1.979,1.139c-1.403,0-2.483-1.188-2.483-2.95c-0.012-1.931,1.188-3.118,2.603-3.118
			c0.888,0,1.487,0.42,1.751,0.887h0.024v-3.465H211.449z M210.394,334.629c0-0.132-0.012-0.312-0.048-0.443
			c-0.156-0.672-0.731-1.224-1.523-1.224c-1.091,0-1.739,0.96-1.739,2.243c0,1.176,0.576,2.146,1.715,2.146
			c0.708,0,1.355-0.468,1.547-1.26c0.036-0.144,0.048-0.287,0.048-0.455V334.629z"/>
		<path d="M221.433,337.808c-0.384,0.192-1.151,0.384-2.135,0.384c-2.279,0-3.994-1.439-3.994-4.09c0-2.531,1.715-4.246,4.222-4.246
			c1.008,0,1.643,0.217,1.919,0.36l-0.252,0.851c-0.396-0.191-0.959-0.335-1.631-0.335c-1.895,0-3.154,1.212-3.154,3.334
			c0,1.979,1.139,3.251,3.106,3.251c0.636,0,1.283-0.133,1.703-0.336L221.433,337.808z"/>
		<path d="M222.744,338.071v-8.083h1.139l2.591,4.09c0.6,0.947,1.067,1.799,1.451,2.626l0.024-0.013
			c-0.096-1.078-0.12-2.063-0.12-3.322v-3.381h0.983v8.083h-1.055l-2.567-4.102c-0.563-0.899-1.103-1.823-1.511-2.698l-0.036,0.012
			c0.06,1.02,0.084,1.99,0.084,3.334v3.454H222.744z"/>
		<path d="M230.64,338.071v-8.083h1.139l2.591,4.09c0.6,0.947,1.067,1.799,1.451,2.626l0.024-0.013
			c-0.096-1.078-0.12-2.063-0.12-3.322v-3.381h0.983v8.083h-1.055l-2.566-4.102c-0.564-0.899-1.104-1.823-1.511-2.698l-0.036,0.012
			c0.06,1.02,0.084,1.99,0.084,3.334v3.454H230.64z"/>
	</g>
	<g>
		<path d="M169.249,414.563c0.503-0.084,1.163-0.155,2.003-0.155c1.031,0,1.787,0.239,2.267,0.672
			c0.444,0.384,0.708,0.972,0.708,1.69c0,0.732-0.216,1.308-0.624,1.728c-0.552,0.587-1.451,0.888-2.471,0.888
			c-0.312,0-0.6-0.012-0.839-0.072v3.238h-1.043V414.563z M170.292,418.461c0.228,0.061,0.516,0.084,0.863,0.084
			c1.259,0,2.027-0.611,2.027-1.727c0-1.068-0.755-1.584-1.907-1.584c-0.456,0-0.804,0.037-0.983,0.084V418.461z"/>
		<path d="M175.405,418.557c0-0.684-0.012-1.271-0.048-1.811h0.923l0.036,1.139h0.048c0.264-0.779,0.899-1.271,1.607-1.271
			c0.12,0,0.204,0.012,0.3,0.036v0.995c-0.108-0.024-0.216-0.036-0.36-0.036c-0.744,0-1.271,0.564-1.416,1.355
			c-0.024,0.145-0.048,0.312-0.048,0.492v3.094h-1.043V418.557z"/>
		<path d="M179.797,419.84c0.024,1.428,0.936,2.016,1.991,2.016c0.755,0,1.211-0.133,1.607-0.301l0.18,0.756
			c-0.372,0.168-1.007,0.36-1.931,0.36c-1.787,0-2.854-1.175-2.854-2.927c0-1.751,1.032-3.13,2.723-3.13
			c1.895,0,2.399,1.667,2.399,2.734c0,0.216-0.024,0.384-0.036,0.491H179.797z M182.891,419.084
			c0.012-0.671-0.276-1.715-1.463-1.715c-1.067,0-1.535,0.984-1.619,1.715H182.891z"/>
		<path d="M190.234,414.035v7.017c0,0.516,0.012,1.103,0.048,1.499h-0.947l-0.048-1.008h-0.024c-0.324,0.648-1.032,1.14-1.979,1.14
			c-1.403,0-2.483-1.187-2.483-2.95c-0.012-1.932,1.188-3.118,2.603-3.118c0.888,0,1.487,0.419,1.751,0.888h0.024v-3.467H190.234z
			 M189.179,419.109c0-0.133-0.012-0.313-0.048-0.444c-0.156-0.672-0.731-1.224-1.523-1.224c-1.091,0-1.739,0.959-1.739,2.243
			c0,1.175,0.576,2.146,1.715,2.146c0.708,0,1.355-0.468,1.547-1.259c0.036-0.145,0.048-0.288,0.048-0.456V419.109z"/>
		<path d="M193.164,415.115c0.012,0.359-0.252,0.647-0.671,0.647c-0.372,0-0.636-0.288-0.636-0.647c0-0.372,0.276-0.66,0.66-0.66
			C192.912,414.455,193.164,414.743,193.164,415.115z M191.989,422.551v-5.805h1.056v5.805H191.989z"/>
		<path d="M198.935,422.335c-0.276,0.144-0.888,0.336-1.667,0.336c-1.751,0-2.891-1.188-2.891-2.962
			c0-1.787,1.224-3.083,3.119-3.083c0.624,0,1.175,0.155,1.463,0.3l-0.24,0.815c-0.252-0.144-0.647-0.276-1.223-0.276
			c-1.332,0-2.051,0.984-2.051,2.195c0,1.344,0.864,2.171,2.015,2.171c0.6,0,0.996-0.155,1.295-0.288L198.935,422.335z"/>
		<path d="M201.6,415.079v1.667h1.511v0.803H201.6v3.131c0,0.72,0.204,1.127,0.792,1.127c0.276,0,0.479-0.035,0.611-0.071
			l0.048,0.792c-0.204,0.084-0.528,0.144-0.936,0.144c-0.492,0-0.888-0.156-1.14-0.444c-0.3-0.312-0.408-0.827-0.408-1.511v-3.167
			h-0.899v-0.803h0.899v-1.391L201.6,415.079z"/>
		<path d="M205.476,415.115c0.012,0.359-0.252,0.647-0.671,0.647c-0.372,0-0.636-0.288-0.636-0.647c0-0.372,0.276-0.66,0.66-0.66
			C205.224,414.455,205.476,414.743,205.476,415.115z M204.3,422.551v-5.805h1.056v5.805H204.3z"/>
		<path d="M212.361,419.601c0,2.146-1.487,3.082-2.89,3.082c-1.571,0-2.783-1.151-2.783-2.986c0-1.942,1.271-3.082,2.878-3.082
			C211.234,416.614,212.361,417.825,212.361,419.601z M207.756,419.66c0,1.271,0.732,2.23,1.763,2.23
			c1.007,0,1.763-0.947,1.763-2.254c0-0.984-0.492-2.23-1.739-2.23C208.296,417.406,207.756,418.557,207.756,419.66z"/>
		<path d="M213.696,418.316c0-0.6-0.012-1.091-0.048-1.57h0.936l0.06,0.959h0.024c0.288-0.551,0.959-1.091,1.919-1.091
			c0.803,0,2.051,0.479,2.051,2.47v3.467h-1.056v-3.346c0-0.936-0.348-1.715-1.343-1.715c-0.695,0-1.235,0.491-1.415,1.078
			c-0.048,0.133-0.072,0.313-0.072,0.492v3.49h-1.056V418.316z"/>
		<path d="M227.913,414.035v7.017c0,0.516,0.012,1.103,0.048,1.499h-0.947l-0.048-1.008h-0.024c-0.324,0.648-1.032,1.14-1.979,1.14
			c-1.403,0-2.483-1.187-2.483-2.95c-0.012-1.932,1.188-3.118,2.603-3.118c0.888,0,1.487,0.419,1.751,0.888h0.024v-3.467H227.913z
			 M226.858,419.109c0-0.133-0.012-0.313-0.048-0.444c-0.156-0.672-0.731-1.224-1.523-1.224c-1.091,0-1.739,0.959-1.739,2.243
			c0,1.175,0.576,2.146,1.715,2.146c0.708,0,1.355-0.468,1.547-1.259c0.036-0.145,0.048-0.288,0.048-0.456V419.109z"/>
		<path d="M232.882,422.551l-0.084-0.731h-0.036c-0.324,0.456-0.947,0.863-1.775,0.863c-1.175,0-1.775-0.827-1.775-1.667
			c0-1.403,1.247-2.171,3.49-2.158v-0.121c0-0.479-0.132-1.343-1.319-1.343c-0.54,0-1.103,0.168-1.511,0.432l-0.24-0.695
			c0.48-0.312,1.176-0.516,1.907-0.516c1.775,0,2.207,1.211,2.207,2.374v2.172c0,0.503,0.024,0.994,0.096,1.391H232.882z
			 M232.727,419.588c-1.151-0.023-2.459,0.18-2.459,1.308c0,0.684,0.456,1.008,0.996,1.008c0.755,0,1.235-0.479,1.403-0.972
			c0.036-0.107,0.06-0.229,0.06-0.336V419.588z"/>
		<path d="M236.675,415.079v1.667h1.511v0.803h-1.511v3.131c0,0.72,0.204,1.127,0.792,1.127c0.276,0,0.479-0.035,0.611-0.071
			l0.048,0.792c-0.204,0.084-0.528,0.144-0.936,0.144c-0.492,0-0.888-0.156-1.14-0.444c-0.3-0.312-0.408-0.827-0.408-1.511v-3.167
			h-0.899v-0.803h0.899v-1.391L236.675,415.079z"/>
		<path d="M242.59,422.551l-0.084-0.731h-0.036c-0.324,0.456-0.947,0.863-1.775,0.863c-1.175,0-1.775-0.827-1.775-1.667
			c0-1.403,1.247-2.171,3.49-2.158v-0.121c0-0.479-0.132-1.343-1.319-1.343c-0.54,0-1.103,0.168-1.511,0.432l-0.24-0.695
			c0.48-0.312,1.176-0.516,1.907-0.516c1.775,0,2.207,1.211,2.207,2.374v2.172c0,0.503,0.024,0.994,0.096,1.391H242.59z
			 M242.435,419.588c-1.151-0.023-2.459,0.18-2.459,1.308c0,0.684,0.456,1.008,0.996,1.008c0.755,0,1.235-0.479,1.403-0.972
			c0.036-0.107,0.06-0.229,0.06-0.336V419.588z"/>
		<path d="M186.438,428.627c-0.875,1.176-1.511,2.734-1.511,4.906c0,2.135,0.66,3.67,1.511,4.869h-0.827
			c-0.756-0.996-1.571-2.531-1.571-4.869c0.012-2.363,0.815-3.898,1.571-4.906H186.438z"/>
		<path d="M188.827,429.479v1.668h1.511v0.803h-1.511v3.131c0,0.719,0.204,1.127,0.792,1.127c0.276,0,0.479-0.036,0.611-0.072
			l0.048,0.792c-0.204,0.084-0.528,0.144-0.936,0.144c-0.492,0-0.888-0.156-1.14-0.443c-0.3-0.313-0.408-0.828-0.408-1.512v-3.166
			h-0.899v-0.803h0.899v-1.393L188.827,429.479z"/>
		<path d="M191.527,432.957c0-0.684-0.012-1.271-0.048-1.811h0.923l0.036,1.139h0.048c0.264-0.779,0.899-1.271,1.607-1.271
			c0.12,0,0.204,0.012,0.3,0.036v0.995c-0.108-0.023-0.216-0.035-0.36-0.035c-0.744,0-1.271,0.563-1.416,1.355
			c-0.024,0.144-0.048,0.311-0.048,0.491v3.095h-1.043V432.957z"/>
		<path d="M198.605,436.951l-0.084-0.732h-0.036c-0.324,0.456-0.947,0.863-1.775,0.863c-1.175,0-1.775-0.827-1.775-1.666
			c0-1.404,1.247-2.172,3.49-2.159v-0.12c0-0.479-0.132-1.344-1.319-1.344c-0.54,0-1.104,0.168-1.511,0.432l-0.24-0.695
			c0.48-0.312,1.175-0.516,1.907-0.516c1.775,0,2.207,1.211,2.207,2.375v2.171c0,0.503,0.024,0.995,0.096,1.392H198.605z
			 M198.449,433.988c-1.151-0.023-2.458,0.18-2.458,1.307c0,0.684,0.456,1.008,0.996,1.008c0.755,0,1.235-0.479,1.403-0.971
			c0.036-0.108,0.06-0.229,0.06-0.336V433.988z"/>
		<path d="M202.35,429.515c0.012,0.36-0.252,0.647-0.671,0.647c-0.372,0-0.636-0.287-0.636-0.647c0-0.372,0.276-0.659,0.66-0.659
			C202.098,428.855,202.35,429.143,202.35,429.515z M201.175,436.951v-5.805h1.056v5.805H201.175z"/>
		<path d="M203.983,432.717c0-0.6-0.012-1.092-0.048-1.57h0.936l0.06,0.959h0.024c0.288-0.552,0.959-1.092,1.919-1.092
			c0.803,0,2.051,0.48,2.051,2.471v3.467h-1.056v-3.347c0-0.936-0.348-1.715-1.343-1.715c-0.695,0-1.235,0.491-1.415,1.079
			c-0.048,0.132-0.072,0.313-0.072,0.492v3.49h-1.056V432.717z"/>
		<path d="M211.818,429.515c0.012,0.36-0.252,0.647-0.671,0.647c-0.372,0-0.636-0.287-0.636-0.647c0-0.372,0.276-0.659,0.66-0.659
			C211.566,428.855,211.818,429.143,211.818,429.515z M210.643,436.951v-5.805h1.056v5.805H210.643z"/>
		<path d="M213.451,432.717c0-0.6-0.012-1.092-0.048-1.57h0.936l0.06,0.959h0.024c0.288-0.552,0.959-1.092,1.919-1.092
			c0.803,0,2.051,0.48,2.051,2.471v3.467h-1.056v-3.347c0-0.936-0.348-1.715-1.343-1.715c-0.695,0-1.235,0.491-1.415,1.079
			c-0.048,0.132-0.072,0.313-0.072,0.492v3.49h-1.056V432.717z"/>
		<path d="M225.112,431.146c-0.024,0.419-0.048,0.887-0.048,1.595v3.37c0,1.331-0.264,2.146-0.827,2.65
			c-0.564,0.527-1.379,0.695-2.111,0.695c-0.696,0-1.463-0.168-1.931-0.479l0.264-0.804c0.384,0.24,0.983,0.456,1.703,0.456
			c1.08,0,1.871-0.563,1.871-2.026v-0.648h-0.024c-0.324,0.54-0.948,0.972-1.847,0.972c-1.439,0-2.471-1.224-2.471-2.831
			c0-1.967,1.284-3.082,2.615-3.082c1.007,0,1.559,0.527,1.811,1.008h0.024l0.048-0.875H225.112z M224.02,433.437
			c0-0.18-0.012-0.336-0.06-0.479c-0.192-0.611-0.708-1.115-1.476-1.115c-1.007,0-1.727,0.852-1.727,2.194
			c0,1.14,0.576,2.087,1.715,2.087c0.647,0,1.235-0.408,1.463-1.079c0.06-0.181,0.083-0.384,0.083-0.563V433.437z"/>
		<path d="M226.183,438.402c0.852-1.188,1.511-2.747,1.511-4.906c0-2.146-0.647-3.682-1.511-4.869h0.815
			c0.768,0.984,1.571,2.52,1.571,4.882c0,2.351-0.804,3.874-1.571,4.894H226.183z"/>
	</g>
	<g>
		<line fill="none" stroke="#000000" stroke-miterlimit="10" x1="226.941" y1="280.158" x2="185.681" y2="298.037"/>
		<line fill="none" stroke="#000000" stroke-miterlimit="10" x1="185.681" y1="315.916" x2="226.941" y2="298.037"/>
		<line fill="none" stroke="#000000" stroke-miterlimit="10" x1="185.681" y1="298.037" x2="226.941" y2="315.916"/>
		<line fill="none" stroke="#000000" stroke-miterlimit="10" x1="185.681" y1="280.158" x2="226.941" y2="298.037"/>
		<circle stroke="#FFFFFF" stroke-miterlimit="10" cx="185.681" cy="280.158" r="6.877"/>
		<circle stroke="#FFFFFF" stroke-miterlimit="10" cx="185.681" cy="298.037" r="6.877"/>
		<circle stroke="#FFFFFF" stroke-miterlimit="10" cx="185.681" cy="315.916" r="6.877"/>
		<circle stroke="#FFFFFF" stroke-miterlimit="10" cx="206.311" cy="289.098" r="6.877"/>
		<circle stroke="#FFFFFF" stroke-miterlimit="10" cx="206.311" cy="306.977" r="6.877"/>
		<circle stroke="#FFFFFF" stroke-miterlimit="10" cx="226.941" cy="280.158" r="6.876"/>
		<circle stroke="#FFFFFF" stroke-miterlimit="10" cx="226.941" cy="298.037" r="6.876"/>
		<circle stroke="#FFFFFF" stroke-miterlimit="10" cx="226.941" cy="315.916" r="6.876"/>
	</g>
	<g display="none">
		<g display="inline">
			<path fill="none" stroke="#000000" stroke-miterlimit="10" d="M368.235,26.834c0,20.196-24.885,21.926-29.633,4.968"/>
			<g>
				<path d="M337.825,25.813c1.454,2.658,3.742,5.884,5.942,7.77l-4.955-1.014l-4.456,2.39
					C335.925,32.522,337.194,28.775,337.825,25.813z"/>
			</g>
		</g>
	</g>
	<g display="none">
		<g display="inline">
			<g>
				<line fill="none" stroke="#000000" stroke-miterlimit="10" x1="287.646" y1="25.813" x2="259.914" y2="53.545"/>
				<g>
					<path d="M255.646,57.813c1.263-2.753,2.483-6.516,2.681-9.407l2.146,4.579l4.579,2.146
						C262.162,55.329,258.399,56.549,255.646,57.813z"/>
				</g>
			</g>
		</g>
		<g display="inline">
			<g>
				<line fill="none" stroke="#000000" stroke-miterlimit="10" x1="369.5" y1="25.813" x2="276.601" y2="55.951"/>
				<g>
					<path d="M270.86,57.813c2.376-1.878,5.173-4.676,6.663-7.161l-0.168,5.054l3.104,3.992
						C277.793,58.561,273.886,57.938,270.86,57.813z"/>
				</g>
			</g>
		</g>
		<g display="inline">
			<g>
				<line fill="none" stroke="#000000" stroke-miterlimit="10" x1="369.5" y1="25.813" x2="336.816" y2="53.881"/>
				<g>
					<path d="M332.237,57.813c1.468-2.649,2.97-6.309,3.386-9.177l1.793,4.729l4.403,2.486
						C338.922,55.83,335.078,56.762,332.237,57.813z"/>
				</g>
			</g>
		</g>
		<g display="inline">
			<g>
				<line fill="none" stroke="#000000" stroke-miterlimit="10" x1="286.072" y1="25.813" x2="313.805" y2="53.545"/>
				<g>
					<path d="M318.072,57.813c-2.753-1.263-6.516-2.483-9.407-2.681l4.579-2.146l2.146-4.579
						C315.588,51.298,316.809,55.061,318.072,57.813z"/>
				</g>
			</g>
		</g>
	</g>
	<text transform="matrix(0 1 -1 0 374.0005 181.0068)" display="none" font-family="'MyriadPro-Cond'" font-size="34.6316">}</text>
	<path display="none" fill="none" stroke="#000000" stroke-miterlimit="10" d="M459,23.333c0,0-62.561,112.333-62.561,159.333"/>
	<g>
		<g>
			<polygon fill="#E6E6E6" stroke="#000000" stroke-miterlimit="10" points="354.923,240.653 354.923,278.581 313.812,278.581 
				313.812,231.096 345.366,231.096 345.366,240.653 			"/>
			<polygon fill="#E6E6E6" stroke="#000000" stroke-linejoin="bevel" stroke-miterlimit="10" points="354.923,240.653 
				345.366,240.653 345.366,231.096 			"/>
		</g>
		<g>
			<path d="M326.495,243.568h-1.134l-0.532-1.665h-3.18l-0.538,1.665h-1.081l2.537-7.638h1.426L326.495,243.568z M324.531,240.974
				l-1.292-4.085l-1.292,4.085H324.531z"/>
			<path d="M332.492,241.284c0,0.366-0.071,0.69-0.213,0.973c-0.142,0.282-0.345,0.521-0.608,0.716
				c-0.263,0.195-0.581,0.343-0.953,0.444c-0.372,0.101-0.786,0.151-1.242,0.151h-1.999v-7.638h2.186
				c1.703,0,2.554,0.619,2.554,1.858c0,0.413-0.099,0.768-0.295,1.063c-0.197,0.296-0.517,0.517-0.961,0.661
				c0.207,0.039,0.402,0.105,0.587,0.199s0.348,0.214,0.488,0.362c0.14,0.148,0.251,0.324,0.333,0.526
				C332.451,240.802,332.492,241.03,332.492,241.284z M331.136,237.929c0-0.156-0.023-0.303-0.07-0.441
				c-0.047-0.139-0.129-0.257-0.246-0.357c-0.117-0.099-0.275-0.178-0.474-0.236c-0.199-0.059-0.45-0.088-0.754-0.088h-1.075v2.391
				h1.04c0.238,0,0.453-0.025,0.646-0.076s0.358-0.128,0.497-0.234c0.139-0.105,0.246-0.236,0.322-0.395
				C331.098,238.335,331.136,238.147,331.136,237.929z M331.387,241.319c0-0.195-0.041-0.37-0.123-0.526
				c-0.082-0.156-0.201-0.287-0.357-0.395c-0.156-0.107-0.346-0.19-0.57-0.248c-0.224-0.059-0.476-0.088-0.757-0.088h-1.063v2.63
				h1.099c0.596,0,1.041-0.111,1.333-0.333C331.241,242.137,331.387,241.79,331.387,241.319z"/>
			<path d="M338.95,243.282c-0.612,0.253-1.253,0.38-1.923,0.38c-1.08,0-1.908-0.322-2.487-0.967s-0.868-1.599-0.868-2.861
				c0-0.611,0.08-1.165,0.24-1.66s0.388-0.915,0.684-1.259c0.296-0.345,0.655-0.611,1.076-0.798s0.892-0.281,1.415-0.281
				c0.354,0,0.684,0.03,0.987,0.091c0.304,0.06,0.596,0.153,0.877,0.277v1.023c-0.277-0.152-0.563-0.268-0.859-0.348
				c-0.296-0.08-0.619-0.12-0.97-0.12c-0.358,0-0.683,0.067-0.973,0.202c-0.29,0.135-0.537,0.33-0.739,0.584
				c-0.203,0.255-0.358,0.567-0.467,0.935c-0.109,0.368-0.164,0.788-0.164,1.26c0,0.99,0.201,1.736,0.602,2.238
				c0.401,0.503,0.99,0.753,1.765,0.753c0.328,0,0.641-0.037,0.941-0.113c0.3-0.076,0.588-0.182,0.865-0.318V243.282z"/>
			<path d="M325.788,257.646c-0.612,0.253-1.253,0.38-1.923,0.38c-1.08,0-1.908-0.323-2.487-0.968s-0.868-1.598-0.868-2.861
				c0-0.611,0.08-1.164,0.24-1.659s0.388-0.915,0.684-1.259c0.296-0.346,0.655-0.611,1.076-0.799c0.421-0.187,0.892-0.28,1.415-0.28
				c0.354,0,0.684,0.03,0.987,0.091c0.304,0.061,0.596,0.152,0.877,0.277v1.023c-0.277-0.152-0.563-0.269-0.859-0.348
				c-0.296-0.08-0.619-0.121-0.97-0.121c-0.358,0-0.683,0.068-0.973,0.202c-0.29,0.135-0.537,0.329-0.739,0.585
				c-0.203,0.255-0.358,0.566-0.467,0.935c-0.109,0.368-0.164,0.788-0.164,1.26c0,0.989,0.201,1.735,0.602,2.238
				s0.99,0.754,1.765,0.754c0.328,0,0.641-0.038,0.941-0.114c0.3-0.076,0.588-0.182,0.865-0.318V257.646z"/>
			<path d="M332.369,257.646c-0.612,0.253-1.253,0.38-1.923,0.38c-1.08,0-1.908-0.323-2.487-0.968s-0.868-1.598-0.868-2.861
				c0-0.611,0.08-1.164,0.24-1.659s0.388-0.915,0.684-1.259c0.296-0.346,0.655-0.611,1.076-0.799c0.421-0.187,0.892-0.28,1.415-0.28
				c0.354,0,0.684,0.03,0.987,0.091c0.304,0.061,0.596,0.152,0.877,0.277v1.023c-0.277-0.152-0.563-0.269-0.859-0.348
				c-0.296-0.08-0.619-0.121-0.97-0.121c-0.358,0-0.683,0.068-0.973,0.202c-0.29,0.135-0.537,0.329-0.739,0.585
				c-0.203,0.255-0.358,0.566-0.467,0.935c-0.109,0.368-0.164,0.788-0.164,1.26c0,0.989,0.201,1.735,0.602,2.238
				s0.99,0.754,1.765,0.754c0.328,0,0.641-0.038,0.941-0.114c0.3-0.076,0.588-0.182,0.865-0.318V257.646z"/>
			<path d="M339.657,257.933h-1.134l-0.532-1.665h-3.18l-0.538,1.665h-1.081l2.537-7.639h1.426L339.657,257.933z M337.693,255.338
				l-1.292-4.086l-1.292,4.086H337.693z"/>
			<path d="M325.823,265.604l-3.203,6.692h-1.163l3.326-6.692h-4.126v-0.946h5.167V265.604z"/>
			<path d="M332.621,268.479c0,0.585-0.059,1.117-0.176,1.599c-0.117,0.48-0.294,0.895-0.532,1.238
				c-0.238,0.346-0.533,0.612-0.885,0.801c-0.353,0.189-0.767,0.283-1.242,0.283c-0.409,0-0.781-0.076-1.116-0.23
				c-0.335-0.153-0.622-0.391-0.859-0.71c-0.237-0.319-0.42-0.727-0.549-1.222c-0.128-0.494-0.193-1.081-0.193-1.759
				c0-0.585,0.06-1.118,0.178-1.602c0.119-0.483,0.296-0.897,0.532-1.241c0.235-0.346,0.531-0.612,0.885-0.801
				c0.354-0.189,0.768-0.284,1.239-0.284c0.409,0,0.781,0.077,1.116,0.231c0.335,0.153,0.622,0.391,0.859,0.713
				c0.238,0.321,0.421,0.729,0.55,1.225C332.556,267.215,332.621,267.801,332.621,268.479z M328.097,268.444
				c0,0.12,0.001,0.241,0.003,0.362s0.009,0.238,0.021,0.351l3.232-2.39c-0.059-0.199-0.132-0.381-0.222-0.544
				c-0.089-0.164-0.197-0.306-0.321-0.424c-0.125-0.119-0.267-0.212-0.427-0.278c-0.16-0.065-0.339-0.099-0.538-0.099
				c-0.265,0-0.505,0.063-0.722,0.192s-0.4,0.32-0.552,0.576c-0.152,0.255-0.269,0.57-0.351,0.947
				C328.138,267.514,328.097,267.949,328.097,268.444z M331.592,268.515c0-0.133-0.005-0.265-0.015-0.395
				c-0.01-0.131-0.021-0.259-0.032-0.383l-3.232,2.401c0.059,0.203,0.132,0.391,0.222,0.562c0.089,0.172,0.198,0.319,0.324,0.441
				s0.271,0.218,0.433,0.286s0.346,0.103,0.552,0.103c0.265,0,0.505-0.064,0.722-0.192c0.216-0.129,0.4-0.32,0.552-0.573
				c0.152-0.253,0.269-0.567,0.351-0.944C331.551,269.445,331.592,269.01,331.592,268.515z"/>
			<path d="M339.599,264.037l-5.389,8.259h-0.958l5.377-8.259H339.599z M336.484,265.674c0,0.254-0.037,0.488-0.111,0.705
				c-0.074,0.216-0.18,0.402-0.318,0.561s-0.306,0.282-0.503,0.374c-0.197,0.091-0.416,0.138-0.657,0.138
				c-0.238,0-0.451-0.037-0.64-0.111s-0.351-0.184-0.485-0.33c-0.135-0.146-0.238-0.326-0.31-0.541
				c-0.072-0.215-0.108-0.461-0.108-0.742c0-0.25,0.037-0.482,0.111-0.698c0.074-0.216,0.18-0.404,0.319-0.563
				c0.138-0.16,0.306-0.285,0.502-0.375s0.416-0.135,0.658-0.135c0.237,0,0.451,0.037,0.64,0.111s0.351,0.184,0.485,0.328
				c0.134,0.144,0.237,0.322,0.31,0.537S336.484,265.394,336.484,265.674z M335.625,265.703c0-0.343-0.063-0.596-0.187-0.76
				s-0.298-0.246-0.52-0.246c-0.113,0-0.213,0.025-0.301,0.076c-0.087,0.051-0.162,0.121-0.222,0.211
				c-0.06,0.09-0.106,0.195-0.137,0.318s-0.047,0.256-0.047,0.4c0,0.343,0.063,0.596,0.187,0.76
				c0.125,0.164,0.298,0.246,0.521,0.246c0.113,0,0.213-0.025,0.301-0.076c0.088-0.051,0.162-0.121,0.222-0.211
				s0.106-0.195,0.137-0.318S335.625,265.848,335.625,265.703z M339.505,270.607c0,0.253-0.038,0.486-0.114,0.701
				c-0.076,0.214-0.184,0.4-0.322,0.561s-0.306,0.285-0.502,0.374c-0.197,0.09-0.416,0.135-0.658,0.135
				c-0.238,0-0.451-0.037-0.64-0.111c-0.189-0.073-0.351-0.183-0.485-0.327s-0.238-0.324-0.31-0.541
				c-0.072-0.216-0.108-0.465-0.108-0.744c0-0.25,0.037-0.482,0.111-0.699c0.074-0.217,0.18-0.404,0.318-0.564
				c0.138-0.159,0.306-0.283,0.502-0.373s0.416-0.135,0.658-0.135c0.238,0,0.452,0.037,0.643,0.111s0.354,0.184,0.488,0.33
				s0.238,0.326,0.31,0.541C339.469,270.079,339.505,270.326,339.505,270.607z M338.646,270.631c0-0.344-0.063-0.597-0.19-0.76
				c-0.126-0.164-0.301-0.246-0.523-0.246c-0.113,0-0.213,0.025-0.301,0.076c-0.088,0.051-0.162,0.121-0.222,0.21
				c-0.061,0.09-0.106,0.196-0.137,0.319c-0.031,0.122-0.047,0.256-0.047,0.4c0,0.342,0.062,0.596,0.187,0.76
				c0.125,0.163,0.298,0.244,0.52,0.244c0.113,0,0.213-0.024,0.301-0.075c0.087-0.051,0.163-0.12,0.225-0.21
				c0.063-0.09,0.109-0.196,0.141-0.318C338.63,270.908,338.646,270.774,338.646,270.631z"/>
		</g>
	</g>
	<g>
		<path d="M297.305,286.885c0.503-0.084,1.163-0.155,2.003-0.155c1.031,0,1.787,0.239,2.267,0.672
			c0.444,0.384,0.708,0.972,0.708,1.69c0,0.732-0.216,1.308-0.624,1.728c-0.552,0.587-1.451,0.888-2.471,0.888
			c-0.312,0-0.6-0.012-0.839-0.072v3.238h-1.043V286.885z M298.348,290.783c0.228,0.061,0.516,0.084,0.863,0.084
			c1.259,0,2.027-0.611,2.027-1.727c0-1.068-0.755-1.584-1.907-1.584c-0.456,0-0.804,0.037-0.983,0.084V290.783z"/>
		<path d="M303.46,290.879c0-0.684-0.012-1.271-0.048-1.811h0.923l0.036,1.139h0.048c0.264-0.779,0.899-1.271,1.607-1.271
			c0.12,0,0.204,0.012,0.3,0.036v0.995c-0.108-0.024-0.216-0.036-0.36-0.036c-0.744,0-1.271,0.564-1.416,1.355
			c-0.024,0.145-0.048,0.312-0.048,0.492v3.094h-1.043V290.879z"/>
		<path d="M307.853,292.162c0.024,1.428,0.936,2.016,1.991,2.016c0.755,0,1.211-0.133,1.607-0.301l0.18,0.756
			c-0.372,0.168-1.007,0.36-1.931,0.36c-1.787,0-2.854-1.175-2.854-2.927c0-1.751,1.032-3.13,2.723-3.13
			c1.895,0,2.399,1.667,2.399,2.734c0,0.216-0.024,0.384-0.036,0.491H307.853z M310.947,291.406
			c0.012-0.671-0.276-1.715-1.463-1.715c-1.067,0-1.535,0.984-1.619,1.715H310.947z"/>
		<path d="M318.29,286.357v7.017c0,0.516,0.012,1.103,0.048,1.499h-0.947l-0.048-1.008h-0.024c-0.324,0.648-1.032,1.14-1.979,1.14
			c-1.403,0-2.483-1.187-2.483-2.95c-0.012-1.932,1.188-3.118,2.603-3.118c0.888,0,1.487,0.419,1.751,0.888h0.024v-3.467H318.29z
			 M317.234,291.432c0-0.133-0.012-0.313-0.048-0.444c-0.156-0.672-0.731-1.224-1.523-1.224c-1.091,0-1.739,0.959-1.739,2.243
			c0,1.175,0.576,2.146,1.715,2.146c0.708,0,1.355-0.468,1.547-1.259c0.036-0.145,0.048-0.288,0.048-0.456V291.432z"/>
		<path d="M321.22,287.438c0.012,0.359-0.252,0.647-0.671,0.647c-0.372,0-0.636-0.288-0.636-0.647c0-0.372,0.276-0.66,0.66-0.66
			C320.968,286.777,321.22,287.065,321.22,287.438z M320.044,294.873v-5.805h1.056v5.805H320.044z"/>
		<path d="M326.99,294.657c-0.276,0.144-0.888,0.336-1.667,0.336c-1.751,0-2.891-1.188-2.891-2.962c0-1.787,1.224-3.083,3.119-3.083
			c0.624,0,1.175,0.155,1.463,0.3l-0.24,0.815c-0.252-0.144-0.647-0.276-1.223-0.276c-1.332,0-2.051,0.984-2.051,2.195
			c0,1.344,0.864,2.171,2.015,2.171c0.6,0,0.996-0.155,1.295-0.288L326.99,294.657z"/>
		<path d="M329.656,287.401v1.667h1.511v0.803h-1.511v3.131c0,0.72,0.204,1.127,0.792,1.127c0.276,0,0.479-0.035,0.611-0.071
			l0.048,0.792c-0.204,0.084-0.528,0.144-0.936,0.144c-0.492,0-0.888-0.156-1.14-0.444c-0.3-0.312-0.408-0.827-0.408-1.511v-3.167
			h-0.899v-0.803h0.899v-1.391L329.656,287.401z"/>
		<path d="M333.531,287.438c0.012,0.359-0.252,0.647-0.671,0.647c-0.372,0-0.636-0.288-0.636-0.647c0-0.372,0.276-0.66,0.66-0.66
			C333.279,286.777,333.531,287.065,333.531,287.438z M332.356,294.873v-5.805h1.056v5.805H332.356z"/>
		<path d="M340.417,291.923c0,2.146-1.487,3.082-2.89,3.082c-1.571,0-2.783-1.151-2.783-2.986c0-1.942,1.271-3.082,2.878-3.082
			C339.29,288.937,340.417,290.147,340.417,291.923z M335.812,291.982c0,1.271,0.732,2.23,1.763,2.23
			c1.007,0,1.763-0.947,1.763-2.254c0-0.984-0.492-2.23-1.739-2.23C336.352,289.729,335.812,290.879,335.812,291.982z"/>
		<path d="M341.752,290.639c0-0.6-0.012-1.091-0.048-1.57h0.936l0.06,0.959h0.024c0.288-0.551,0.959-1.091,1.919-1.091
			c0.803,0,2.051,0.479,2.051,2.47v3.467h-1.056v-3.346c0-0.936-0.348-1.715-1.343-1.715c-0.695,0-1.235,0.491-1.415,1.078
			c-0.048,0.133-0.072,0.313-0.072,0.492v3.49h-1.056V290.639z"/>
		<path d="M355.969,286.357v7.017c0,0.516,0.012,1.103,0.048,1.499h-0.947l-0.048-1.008h-0.024c-0.324,0.648-1.032,1.14-1.979,1.14
			c-1.403,0-2.483-1.187-2.483-2.95c-0.012-1.932,1.188-3.118,2.603-3.118c0.888,0,1.487,0.419,1.751,0.888h0.024v-3.467H355.969z
			 M354.914,291.432c0-0.133-0.012-0.313-0.048-0.444c-0.156-0.672-0.731-1.224-1.523-1.224c-1.091,0-1.739,0.959-1.739,2.243
			c0,1.175,0.576,2.146,1.715,2.146c0.708,0,1.355-0.468,1.547-1.259c0.036-0.145,0.048-0.288,0.048-0.456V291.432z"/>
		<path d="M360.938,294.873l-0.084-0.731h-0.036c-0.324,0.456-0.947,0.863-1.775,0.863c-1.175,0-1.775-0.827-1.775-1.667
			c0-1.403,1.247-2.171,3.49-2.158v-0.121c0-0.479-0.132-1.343-1.319-1.343c-0.54,0-1.103,0.168-1.511,0.432l-0.24-0.695
			c0.48-0.312,1.176-0.516,1.907-0.516c1.775,0,2.207,1.211,2.207,2.374v2.172c0,0.503,0.024,0.994,0.096,1.391H360.938z
			 M360.782,291.91c-1.151-0.023-2.459,0.18-2.459,1.308c0,0.684,0.456,1.008,0.996,1.008c0.755,0,1.235-0.479,1.403-0.972
			c0.036-0.107,0.06-0.229,0.06-0.336V291.91z"/>
		<path d="M364.731,287.401v1.667h1.511v0.803h-1.511v3.131c0,0.72,0.204,1.127,0.792,1.127c0.276,0,0.479-0.035,0.611-0.071
			l0.048,0.792c-0.204,0.084-0.528,0.144-0.936,0.144c-0.492,0-0.888-0.156-1.14-0.444c-0.3-0.312-0.408-0.827-0.408-1.511v-3.167
			H362.8v-0.803h0.899v-1.391L364.731,287.401z"/>
		<path d="M370.646,294.873l-0.084-0.731h-0.036c-0.324,0.456-0.947,0.863-1.775,0.863c-1.175,0-1.775-0.827-1.775-1.667
			c0-1.403,1.247-2.171,3.49-2.158v-0.121c0-0.479-0.132-1.343-1.319-1.343c-0.54,0-1.103,0.168-1.511,0.432l-0.24-0.695
			c0.48-0.312,1.176-0.516,1.907-0.516c1.775,0,2.207,1.211,2.207,2.374v2.172c0,0.503,0.024,0.994,0.096,1.391H370.646z
			 M370.49,291.91c-1.151-0.023-2.459,0.18-2.459,1.308c0,0.684,0.456,1.008,0.996,1.008c0.755,0,1.235-0.479,1.403-0.972
			c0.036-0.107,0.06-0.229,0.06-0.336V291.91z"/>
		<path d="M316.72,300.949c-0.876,1.176-1.511,2.734-1.511,4.906c0,2.135,0.66,3.67,1.511,4.869h-0.828
			c-0.756-0.996-1.571-2.531-1.571-4.869c0.012-2.363,0.815-3.898,1.571-4.906H316.72z"/>
		<path d="M319.108,301.801v1.668h1.511v0.803h-1.511v3.131c0,0.719,0.204,1.127,0.792,1.127c0.276,0,0.479-0.036,0.611-0.072
			l0.048,0.792c-0.204,0.084-0.528,0.144-0.936,0.144c-0.492,0-0.888-0.156-1.14-0.443c-0.3-0.313-0.408-0.828-0.408-1.512v-3.166
			h-0.899v-0.803h0.899v-1.393L319.108,301.801z"/>
		<path d="M322.325,306.563c0.024,1.428,0.935,2.015,1.991,2.015c0.755,0,1.211-0.132,1.607-0.3l0.18,0.756
			c-0.372,0.168-1.007,0.359-1.931,0.359c-1.787,0-2.854-1.176-2.854-2.926c0-1.752,1.032-3.131,2.723-3.131
			c1.895,0,2.399,1.668,2.399,2.734c0,0.217-0.024,0.385-0.036,0.492H322.325z M325.419,305.807
			c0.012-0.672-0.276-1.715-1.463-1.715c-1.067,0-1.535,0.983-1.619,1.715H325.419z"/>
		<path d="M327.604,308.193c0.312,0.204,0.864,0.42,1.392,0.42c0.768,0,1.127-0.384,1.127-0.863c0-0.504-0.3-0.779-1.079-1.068
			c-1.043-0.371-1.535-0.947-1.535-1.643c0-0.936,0.755-1.703,2.003-1.703c0.587,0,1.104,0.168,1.427,0.359l-0.264,0.768
			c-0.228-0.143-0.647-0.335-1.187-0.335c-0.624,0-0.972,0.36-0.972,0.792c0,0.479,0.348,0.695,1.104,0.982
			c1.007,0.385,1.523,0.889,1.523,1.752c0,1.02-0.792,1.738-2.171,1.738c-0.635,0-1.223-0.156-1.631-0.396L327.604,308.193z"/>
		<path d="M333.772,301.801v1.668h1.511v0.803h-1.511v3.131c0,0.719,0.204,1.127,0.792,1.127c0.276,0,0.479-0.036,0.611-0.072
			l0.048,0.792c-0.204,0.084-0.528,0.144-0.936,0.144c-0.492,0-0.888-0.156-1.14-0.443c-0.3-0.313-0.408-0.828-0.408-1.512v-3.166
			h-0.899v-0.803h0.899v-1.393L333.772,301.801z"/>
		<path d="M337.647,301.837c0.012,0.36-0.252,0.647-0.671,0.647c-0.372,0-0.636-0.287-0.636-0.647c0-0.372,0.276-0.659,0.66-0.659
			C337.396,301.178,337.647,301.465,337.647,301.837z M336.472,309.273v-5.805h1.056v5.805H336.472z"/>
		<path d="M339.28,305.039c0-0.6-0.012-1.092-0.048-1.57h0.936l0.06,0.959h0.024c0.288-0.552,0.959-1.092,1.919-1.092
			c0.803,0,2.051,0.48,2.051,2.471v3.467h-1.056v-3.347c0-0.936-0.348-1.715-1.343-1.715c-0.695,0-1.235,0.491-1.415,1.079
			c-0.048,0.132-0.072,0.313-0.072,0.492v3.49h-1.056V305.039z"/>
		<path d="M350.942,303.469c-0.024,0.419-0.048,0.887-0.048,1.595v3.37c0,1.331-0.264,2.146-0.827,2.65
			c-0.564,0.527-1.379,0.695-2.111,0.695c-0.696,0-1.463-0.168-1.931-0.479l0.264-0.804c0.384,0.24,0.983,0.456,1.703,0.456
			c1.08,0,1.871-0.563,1.871-2.026v-0.648h-0.024c-0.324,0.54-0.948,0.972-1.847,0.972c-1.439,0-2.471-1.224-2.471-2.831
			c0-1.967,1.284-3.082,2.615-3.082c1.007,0,1.559,0.527,1.811,1.008h0.024l0.048-0.875H350.942z M349.85,305.759
			c0-0.18-0.012-0.336-0.06-0.479c-0.192-0.611-0.708-1.115-1.476-1.115c-1.007,0-1.727,0.852-1.727,2.194
			c0,1.14,0.576,2.087,1.715,2.087c0.647,0,1.235-0.408,1.463-1.079c0.06-0.181,0.083-0.384,0.083-0.563V305.759z"/>
		<path d="M352.012,310.725c0.852-1.188,1.511-2.747,1.511-4.906c0-2.146-0.647-3.682-1.511-4.869h0.816
			c0.768,0.984,1.571,2.52,1.571,4.882c0,2.351-0.803,3.874-1.571,4.894H352.012z"/>
	</g>
	<g>
		<g>
			<path fill="none" stroke="#000000" stroke-miterlimit="10" d="M119.188,215.625c96.959,1.621,148.437,44.166,148.437,44.166
				l-22.619,23.682l22.619-23.682l29.677,0.727"/>
			<g>
				<path d="M303.335,260.665c-2.865,0.984-6.431,2.695-8.661,4.545l1.836-4.712l-1.603-4.796
					C297.044,257.659,300.522,259.543,303.335,260.665z"/>
			</g>
		</g>
	</g>
	<g display="none">
		<g display="inline">
			<g>
				<line fill="none" stroke="#000000" stroke-miterlimit="10" x1="312.948" y1="25.813" x2="328.188" y2="41.052"/>
				<g>
					<path d="M332.455,45.319c-2.753-1.263-6.516-2.483-9.407-2.681l4.579-2.147l2.146-4.579
						C329.971,38.804,331.191,42.567,332.455,45.319z"/>
				</g>
			</g>
		</g>
		<g display="inline">
			<g>
				<line fill="none" stroke="#000000" stroke-miterlimit="10" x1="359.579" y1="25.813" x2="344.339" y2="41.052"/>
				<g>
					<path d="M340.072,45.319c1.263-2.753,2.483-6.516,2.681-9.407l2.146,4.579l4.579,2.146
						C346.587,42.835,342.824,44.056,340.072,45.319z"/>
				</g>
			</g>
		</g>
		<g display="inline">
			<g>
				<line fill="none" stroke="#000000" stroke-miterlimit="10" x1="331.213" y1="57.215" x2="319.791" y2="68.637"/>
				<g>
					<path d="M315.523,72.904c1.263-2.753,2.483-6.516,2.681-9.407l2.146,4.579l4.579,2.146
						C322.038,70.42,318.275,71.641,315.523,72.904z"/>
				</g>
			</g>
		</g>
		<g display="inline">
			<g>
				<line fill="none" stroke="#000000" stroke-miterlimit="10" x1="340.853" y1="56.844" x2="352.275" y2="68.266"/>
				<g>
					<path d="M356.542,72.533c-2.753-1.263-6.516-2.483-9.407-2.681l4.579-2.146l2.146-4.579
						C354.059,66.018,355.279,69.781,356.542,72.533z"/>
				</g>
			</g>
		</g>
	</g>
	<g>
		<g>
			<path fill="none" stroke="#000000" stroke-miterlimit="10" d="M119.188,330.307c8.522,0,22.619,21.664,22.619,21.664
				c20.381,0,13.052-19.452,23.98-30.391"/>
			<g>
				<path d="M170.667,318.018c-1.633,2.552-3.363,6.108-3.96,8.944l-1.491-4.833l-4.236-2.761
					C163.87,319.573,167.765,318.887,170.667,318.018z"/>
			</g>
		</g>
	</g>
	<g>
		<g>
			<path fill="none" stroke="#000000" stroke-miterlimit="10" d="M119.188,373.634c8.522,0,22.619-21.663,22.619-21.663
				c21.648-0.497,16.434,11.453,27.209,14.55"/>
			<g>
				<path d="M175.009,367.244c-2.957,0.656-6.693,1.957-9.116,3.545l2.353-4.477l-1.055-4.945
					C169.094,363.552,172.339,365.813,175.009,367.244z"/>
			</g>
		</g>
	</g>
	<g>
		<g>
			<path fill="none" stroke="#000000" stroke-miterlimit="10" d="M119.188,190.125c219.238-9,276.469-21.06,285.522,48
				c1.796,13.698,11.438,70.792,11.438,70.791h12.049"/>
			<g>
				<path d="M434.232,308.915c-2.84,1.054-6.363,2.852-8.547,4.756l1.72-4.756l-1.72-4.755
					C427.869,306.064,431.393,307.862,434.232,308.915z"/>
			</g>
		</g>
	</g>
	<path fill="none" stroke="#000000" stroke-miterlimit="10" d="M238.002,395.371c86.666,1.69,178.146-86.456,178.146-86.456"/>
	<path fill="none" stroke="#000000" stroke-miterlimit="10" d="M366.667,266.666c24.741,0,49.482,42.149,49.482,42.149"/>
	<g>
		<path d="M274.316,75.797c1.106-0.227,2.69-0.353,4.199-0.353c2.339,0,3.848,0.428,4.904,1.383
			c0.855,0.754,1.333,1.911,1.333,3.219c0,2.238-1.408,3.722-3.193,4.325v0.076c1.308,0.452,2.087,1.659,2.489,3.42
			c0.554,2.363,0.956,3.998,1.308,4.652h-2.263c-0.277-0.478-0.654-1.936-1.132-4.048c-0.503-2.339-1.408-3.219-3.395-3.294h-2.063
			v7.343h-2.188V75.797z M276.504,83.517h2.238c2.339,0,3.822-1.282,3.822-3.219c0-2.188-1.584-3.144-3.897-3.168
			c-1.057,0-1.811,0.101-2.163,0.201V83.517z"/>
		<path d="M289.103,86.836c0.05,2.992,1.961,4.225,4.174,4.225c1.584,0,2.54-0.276,3.37-0.629l0.377,1.584
			c-0.779,0.352-2.112,0.754-4.048,0.754c-3.747,0-5.985-2.464-5.985-6.136s2.163-6.563,5.708-6.563
			c3.974,0,5.029,3.496,5.029,5.733c0,0.453-0.05,0.805-0.075,1.031H289.103z M295.59,85.252c0.025-1.408-0.579-3.596-3.068-3.596
			c-2.238,0-3.219,2.062-3.395,3.596H295.59z"/>
		<path d="M300.469,84.321c0-1.559-0.051-2.816-0.101-3.973h1.986l0.101,2.087h0.05c0.905-1.484,2.338-2.364,4.325-2.364
			c2.942,0,5.155,2.49,5.155,6.187c0,4.375-2.665,6.538-5.532,6.538c-1.609,0-3.018-0.704-3.747-1.911h-0.05v6.613h-2.188V84.321z
			 M302.656,87.565c0,0.327,0.05,0.628,0.101,0.905c0.402,1.534,1.735,2.59,3.319,2.59c2.339,0,3.696-1.911,3.696-4.702
			c0-2.439-1.282-4.526-3.621-4.526c-1.509,0-2.917,1.081-3.344,2.741c-0.076,0.277-0.151,0.604-0.151,0.905V87.565z"/>
		<path d="M316.009,86.836c0.05,2.992,1.961,4.225,4.174,4.225c1.584,0,2.54-0.276,3.37-0.629l0.377,1.584
			c-0.779,0.352-2.112,0.754-4.048,0.754c-3.747,0-5.985-2.464-5.985-6.136s2.163-6.563,5.708-6.563
			c3.974,0,5.029,3.496,5.029,5.733c0,0.453-0.05,0.805-0.075,1.031H316.009z M322.497,85.252c0.025-1.408-0.579-3.596-3.068-3.596
			c-2.238,0-3.219,2.062-3.395,3.596H322.497z"/>
		<path d="M334.114,92.519l-0.176-1.534h-0.076c-0.679,0.955-1.986,1.811-3.722,1.811c-2.464,0-3.722-1.735-3.722-3.496
			c0-2.942,2.615-4.551,7.318-4.526v-0.251c0-1.006-0.277-2.816-2.766-2.816c-1.132,0-2.313,0.352-3.168,0.905l-0.503-1.458
			c1.006-0.654,2.464-1.082,3.999-1.082c3.722,0,4.627,2.54,4.627,4.979v4.551c0,1.056,0.05,2.087,0.201,2.917H334.114z
			 M333.787,86.308c-2.414-0.05-5.155,0.377-5.155,2.741c0,1.434,0.956,2.112,2.087,2.112c1.584,0,2.59-1.006,2.942-2.037
			c0.076-0.226,0.126-0.478,0.126-0.704V86.308z"/>
		<path d="M342.061,76.853v3.496h3.168v1.685h-3.168v6.563c0,1.509,0.427,2.364,1.659,2.364c0.579,0,1.006-0.075,1.283-0.151
			l0.101,1.66c-0.427,0.176-1.106,0.302-1.961,0.302c-1.031,0-1.861-0.327-2.389-0.931c-0.629-0.653-0.855-1.735-0.855-3.168v-6.639
			h-1.886v-1.685h1.886v-2.917L342.061,76.853z"/>
		<path d="M257.783,114.497c0-1.559-0.051-2.816-0.101-3.973h1.986l0.101,2.087h0.05c0.905-1.484,2.338-2.364,4.325-2.364
			c2.942,0,5.155,2.49,5.155,6.187c0,4.375-2.665,6.538-5.532,6.538c-1.609,0-3.018-0.704-3.747-1.911h-0.05v6.613h-2.188V114.497z
			 M259.971,117.741c0,0.327,0.05,0.628,0.101,0.905c0.402,1.534,1.735,2.59,3.319,2.59c2.339,0,3.696-1.911,3.696-4.702
			c0-2.439-1.282-4.526-3.621-4.526c-1.509,0-2.917,1.081-3.344,2.741c-0.076,0.277-0.151,0.604-0.151,0.905V117.741z"/>
		<path d="M273.323,117.012c0.05,2.992,1.961,4.225,4.174,4.225c1.584,0,2.54-0.276,3.37-0.629l0.377,1.584
			c-0.779,0.352-2.112,0.754-4.048,0.754c-3.747,0-5.985-2.464-5.985-6.136s2.163-6.563,5.708-6.563
			c3.974,0,5.029,3.496,5.029,5.733c0,0.453-0.05,0.805-0.075,1.031H273.323z M279.811,115.428c0.025-1.408-0.579-3.596-3.068-3.596
			c-2.238,0-3.219,2.062-3.395,3.596H279.811z"/>
		<path d="M284.689,114.321c0-1.434-0.025-2.666-0.101-3.797h1.936l0.076,2.389h0.101c0.553-1.635,1.886-2.666,3.369-2.666
			c0.252,0,0.428,0.025,0.629,0.076v2.087c-0.227-0.051-0.453-0.076-0.754-0.076c-1.559,0-2.666,1.182-2.967,2.841
			c-0.05,0.302-0.101,0.654-0.101,1.031v6.488h-2.188V114.321z"/>
		<path d="M299.475,117.012c0.05,2.992,1.961,4.225,4.174,4.225c1.584,0,2.54-0.276,3.37-0.629l0.377,1.584
			c-0.78,0.352-2.112,0.754-4.049,0.754c-3.747,0-5.985-2.464-5.985-6.136s2.163-6.563,5.708-6.563c3.973,0,5.029,3.496,5.029,5.733
			c0,0.453-0.051,0.805-0.076,1.031H299.475z M305.963,115.428c0.025-1.408-0.578-3.596-3.068-3.596
			c-2.238,0-3.219,2.062-3.395,3.596H305.963z"/>
		<path d="M310.841,114.497c0-1.559-0.05-2.816-0.101-3.973h1.987l0.101,2.087h0.05c0.905-1.484,2.339-2.364,4.325-2.364
			c2.942,0,5.155,2.49,5.155,6.187c0,4.375-2.666,6.538-5.532,6.538c-1.609,0-3.018-0.704-3.747-1.911h-0.05v6.613h-2.188V114.497z
			 M313.029,117.741c0,0.327,0.05,0.628,0.101,0.905c0.402,1.534,1.735,2.59,3.319,2.59c2.338,0,3.697-1.911,3.697-4.702
			c0-2.439-1.283-4.526-3.621-4.526c-1.509,0-2.917,1.081-3.345,2.741c-0.075,0.277-0.151,0.604-0.151,0.905V117.741z"/>
		<path d="M336.163,116.509c0,4.501-3.118,6.463-6.06,6.463c-3.294,0-5.834-2.414-5.834-6.262c0-4.074,2.666-6.463,6.035-6.463
			C333.8,110.247,336.163,112.787,336.163,116.509z M326.507,116.635c0,2.665,1.534,4.677,3.697,4.677
			c2.112,0,3.697-1.986,3.697-4.728c0-2.062-1.031-4.677-3.646-4.677S326.507,114.321,326.507,116.635z"/>
		<path d="M347.63,122.242c-0.578,0.302-1.861,0.704-3.495,0.704c-3.672,0-6.061-2.489-6.061-6.211c0-3.747,2.565-6.463,6.538-6.463
			c1.308,0,2.464,0.327,3.068,0.629l-0.503,1.71c-0.528-0.302-1.358-0.579-2.565-0.579c-2.791,0-4.3,2.062-4.3,4.602
			c0,2.816,1.811,4.551,4.225,4.551c1.257,0,2.087-0.327,2.716-0.604L347.63,122.242z"/>
		<path d="M350.22,104.841h2.213v7.594h0.051c0.352-0.628,0.905-1.182,1.584-1.559c0.654-0.377,1.434-0.629,2.263-0.629
			c1.634,0,4.25,1.006,4.25,5.206v7.242h-2.213v-6.991c0-1.961-0.729-3.621-2.816-3.621c-1.433,0-2.564,1.006-2.967,2.213
			c-0.126,0.302-0.151,0.629-0.151,1.056v7.343h-2.213V104.841z"/>
	</g>
	<g>
		<g>
			<line fill="none" stroke="#000000" stroke-miterlimit="10" x1="506.042" y1="310.185" x2="518.34" y2="310.185"/>
			<g>
				<path d="M524.375,310.185c-2.84,1.054-6.363,2.852-8.547,4.756l1.72-4.756l-1.72-4.755
					C518.012,307.334,521.535,309.132,524.375,310.185z"/>
			</g>
		</g>
	</g>
</g>
<g id="Layer_5" display="none">
	<path display="inline" d="M410.186,82.003c0,6.343-5.135,11.478-11.477,11.478c-0.714,0-1.42-0.069-2.101-0.196l-18.159,25.403
		l-0.008,0.025l-1.463,2.031l-0.008,0.018c-1.301,1.266-3.086,2.049-5.041,2.049c-3.988,0-7.227-3.239-7.227-7.227
		c0-1.819,0.672-3.485,1.802-4.761l0.315-0.349l21.331-23.966c-0.596-1.386-0.918-2.907-0.918-4.506
		c0-6.342,5.134-11.477,11.477-11.477c0.893,0,1.768,0.102,2.601,0.298l-7.362,9.716l7.345,5.569l7.397-9.776
		C409.643,78.007,410.186,79.938,410.186,82.003z"/>
	<text transform="matrix(1 0 0 1 396.4448 117.21)" display="inline" font-family="'MyriadPro-Regular'" font-size="12">Tool</text>
	<g display="inline">
		<g>
			<line fill="none" stroke="#000000" stroke-miterlimit="10" x1="390.156" y1="35.479" x2="392.441" y2="54.993"/>
			<g>
				<polygon points="393.263,62.006 388.067,52.597 392.38,54.469 396.143,51.651 				"/>
			</g>
		</g>
	</g>
	<g display="inline">
		<g>
			<line fill="none" stroke="#000000" stroke-miterlimit="10" x1="390.479" y1="134.128" x2="388.463" y2="149.993"/>
			<g>
				<polygon points="387.574,156.997 384.794,146.615 388.53,149.469 392.86,147.64 				"/>
			</g>
		</g>
	</g>
	<g display="inline">
		<g>
			<line fill="none" stroke="#000000" stroke-miterlimit="10" x1="331.079" y1="35.479" x2="350.656" y2="59.365"/>
			<g>
				<polygon points="355.132,64.825 345.681,59.708 350.322,58.957 351.969,54.554 				"/>
			</g>
		</g>
	</g>
	<g display="inline">
		<g>
			<line fill="none" stroke="#000000" stroke-miterlimit="10" x1="457.944" y1="35.479" x2="437.047" y2="58.219"/>
			<g>
				<polygon points="432.27,63.418 436.009,53.341 437.405,57.831 441.995,58.842 				"/>
			</g>
		</g>
	</g>
</g>
<g id="Layer_3">
	<path fill="#E6E6E6" d="M544.314,16.49h70.131c7.149,0,12.949,5.46,12.949,12.21v407.6c0,6.75-5.8,12.21-12.949,12.21h-70.131
		c-7.149,0-12.949-5.46-12.949-12.21V28.7C531.365,21.95,537.165,16.49,544.314,16.49z"/>
	<g>
		<rect x="545.38" y="278.478" fill="#FFFFFF" stroke="#000000" stroke-miterlimit="10" width="68" height="39.54"/>
		<rect x="545.38" y="318.018" fill="#FFFFFF" stroke="#000000" stroke-miterlimit="10" width="68" height="4.44"/>
		<polygon points="570.499,307.134 570.499,289.361 588.271,298.247 		"/>
		<rect x="545.38" y="318.018" width="68" height="4.44"/>
	</g>
	<g>
		<path stroke="#E6E6E6" stroke-miterlimit="10" d="M590.192,83.836c0,0.009,0,0.009,0,0.019c-0.008,4.783-4.879,8.664-10.879,8.664
			c-5.791,0-10.522-3.612-10.853-8.161l10.931-41.814L590.192,83.836z"/>
		<circle stroke="#E6E6E6" stroke-width="2" stroke-miterlimit="10" cx="578.879" cy="52.311" r="11.532"/>
	</g>
	<g>
		<path d="M551.492,110.946v-8.083h1.139l2.591,4.09c0.6,0.947,1.067,1.799,1.451,2.626l0.024-0.012
			c-0.096-1.079-0.12-2.063-0.12-3.322v-3.382h0.983v8.083h-1.055l-2.566-4.102c-0.564-0.9-1.104-1.823-1.511-2.699l-0.036,0.012
			c0.06,1.019,0.084,1.991,0.084,3.334v3.454H551.492z"/>
		<path d="M564.604,107.996c0,2.146-1.487,3.082-2.89,3.082c-1.571,0-2.783-1.151-2.783-2.986c0-1.943,1.271-3.082,2.878-3.082
			C563.478,105.009,564.604,106.22,564.604,107.996z M559.999,108.055c0,1.271,0.732,2.231,1.763,2.231
			c1.007,0,1.763-0.947,1.763-2.255c0-0.983-0.492-2.23-1.739-2.23C560.539,105.801,559.999,106.952,559.999,108.055z"/>
		<path d="M565.939,106.712c0-0.6-0.012-1.091-0.048-1.571h0.936l0.06,0.959h0.024c0.288-0.552,0.959-1.091,1.919-1.091
			c0.803,0,2.051,0.479,2.051,2.47v3.466h-1.056V107.6c0-0.936-0.348-1.715-1.343-1.715c-0.695,0-1.235,0.492-1.415,1.079
			c-0.048,0.132-0.072,0.312-0.072,0.492v3.49h-1.056V106.712z"/>
		<path d="M575.046,107.312v0.779h-2.962v-0.779H575.046z"/>
		<path d="M577.087,108.235c0.024,1.427,0.936,2.015,1.991,2.015c0.755,0,1.211-0.132,1.607-0.3l0.18,0.756
			c-0.372,0.168-1.007,0.36-1.931,0.36c-1.787,0-2.854-1.176-2.854-2.927s1.032-3.13,2.723-3.13c1.895,0,2.399,1.667,2.399,2.734
			c0,0.216-0.024,0.384-0.036,0.492H577.087z M580.181,107.479c0.012-0.671-0.276-1.715-1.463-1.715
			c-1.067,0-1.535,0.983-1.619,1.715H580.181z"/>
		<path d="M582.967,105.141l0.828,1.247c0.216,0.324,0.396,0.624,0.587,0.948h0.036c0.192-0.348,0.384-0.648,0.576-0.959
			l0.815-1.235h1.14l-1.979,2.806l2.039,2.999h-1.2l-0.851-1.307c-0.228-0.336-0.42-0.66-0.624-1.008h-0.024
			c-0.192,0.348-0.396,0.66-0.612,1.008l-0.839,1.307h-1.164l2.063-2.962l-1.967-2.842H582.967z"/>
		<path d="M588.031,107.036c0-0.744-0.024-1.343-0.048-1.895h0.947l0.048,0.995h0.024c0.432-0.708,1.115-1.127,2.063-1.127
			c1.403,0,2.459,1.187,2.459,2.95c0,2.087-1.271,3.118-2.639,3.118c-0.768,0-1.439-0.336-1.787-0.912h-0.024v3.154h-1.043V107.036z
			 M589.075,108.583c0,0.156,0.024,0.3,0.048,0.432c0.192,0.732,0.828,1.235,1.583,1.235c1.115,0,1.763-0.911,1.763-2.243
			c0-1.163-0.611-2.159-1.727-2.159c-0.72,0-1.391,0.516-1.595,1.307c-0.036,0.132-0.072,0.288-0.072,0.432V108.583z"/>
		<path d="M595.447,108.235c0.024,1.427,0.935,2.015,1.991,2.015c0.755,0,1.211-0.132,1.607-0.3l0.18,0.756
			c-0.372,0.168-1.007,0.36-1.931,0.36c-1.787,0-2.854-1.176-2.854-2.927s1.032-3.13,2.723-3.13c1.895,0,2.399,1.667,2.399,2.734
			c0,0.216-0.024,0.384-0.036,0.492H595.447z M598.541,107.479c0.012-0.671-0.276-1.715-1.463-1.715
			c-1.067,0-1.535,0.983-1.619,1.715H598.541z"/>
		<path d="M600.871,106.952c0-0.684-0.012-1.271-0.048-1.811h0.923l0.036,1.139h0.048c0.264-0.779,0.899-1.271,1.607-1.271
			c0.12,0,0.204,0.012,0.3,0.036v0.996c-0.108-0.024-0.216-0.036-0.36-0.036c-0.744,0-1.271,0.564-1.416,1.355
			c-0.024,0.144-0.048,0.312-0.048,0.492v3.094h-1.043V106.952z"/>
		<path d="M606.354,103.474v1.667h1.511v0.803h-1.511v3.13c0,0.72,0.204,1.127,0.792,1.127c0.276,0,0.479-0.036,0.611-0.072
			l0.048,0.792c-0.204,0.084-0.528,0.144-0.936,0.144c-0.492,0-0.888-0.156-1.14-0.444c-0.3-0.312-0.408-0.828-0.408-1.511v-3.167
			h-0.899v-0.803h0.899v-1.392L606.354,103.474z"/>
	</g>
	<g>
		<path d="M535.513,338.893l-2.639-8.083h1.127l1.259,3.981c0.348,1.092,0.648,2.075,0.864,3.022h0.024
			c0.228-0.935,0.563-1.954,0.923-3.011l1.367-3.993h1.116l-2.891,8.083H535.513z"/>
		<path d="M541.381,331.457c0.012,0.359-0.252,0.648-0.671,0.648c-0.372,0-0.636-0.289-0.636-0.648c0-0.371,0.276-0.66,0.66-0.66
			C541.129,330.797,541.381,331.086,541.381,331.457z M540.206,338.893v-5.805h1.056v5.805H540.206z"/>
		<path d="M542.87,337.813c0.312,0.204,0.864,0.42,1.392,0.42c0.768,0,1.127-0.384,1.127-0.863c0-0.504-0.3-0.78-1.079-1.067
			c-1.043-0.372-1.535-0.947-1.535-1.644c0-0.935,0.755-1.702,2.003-1.702c0.587,0,1.103,0.167,1.427,0.359l-0.264,0.768
			c-0.228-0.145-0.647-0.336-1.187-0.336c-0.624,0-0.972,0.359-0.972,0.791c0,0.48,0.348,0.695,1.104,0.984
			c1.007,0.383,1.523,0.887,1.523,1.75c0,1.02-0.792,1.74-2.171,1.74c-0.635,0-1.223-0.156-1.631-0.396L542.87,337.813z"/>
		<path d="M552.623,337.311c0,0.6,0.012,1.127,0.048,1.582h-0.936l-0.06-0.947h-0.024c-0.276,0.469-0.887,1.08-1.919,1.08
			c-0.911,0-2.003-0.504-2.003-2.543v-3.395h1.056v3.215c0,1.104,0.336,1.847,1.295,1.847c0.708,0,1.199-0.491,1.391-0.96
			c0.06-0.155,0.096-0.348,0.096-0.539v-3.563h1.056V337.311z"/>
		<path d="M557.592,338.893l-0.084-0.73h-0.036c-0.324,0.455-0.947,0.863-1.775,0.863c-1.175,0-1.775-0.828-1.775-1.668
			c0-1.402,1.247-2.17,3.49-2.158v-0.12c0-0.479-0.132-1.343-1.319-1.343c-0.54,0-1.104,0.168-1.511,0.432l-0.24-0.695
			c0.48-0.313,1.175-0.516,1.907-0.516c1.775,0,2.207,1.211,2.207,2.374v2.171c0,0.504,0.024,0.995,0.096,1.391H557.592z
			 M557.436,335.931c-1.151-0.024-2.458,0.181-2.458,1.308c0,0.684,0.456,1.008,0.996,1.008c0.755,0,1.235-0.48,1.403-0.973
			c0.036-0.107,0.06-0.228,0.06-0.336V335.931z"/>
		<path d="M560.162,330.378h1.056v8.515h-1.056V330.378z"/>
		<path d="M564.169,331.457c0.012,0.359-0.252,0.648-0.671,0.648c-0.372,0-0.636-0.289-0.636-0.648c0-0.371,0.276-0.66,0.66-0.66
			C563.917,330.797,564.169,331.086,564.169,331.457z M562.994,338.893v-5.805h1.056v5.805H562.994z"/>
		<path d="M565.657,337.813c0.312,0.204,0.864,0.42,1.392,0.42c0.768,0,1.127-0.384,1.127-0.863c0-0.504-0.3-0.78-1.079-1.067
			c-1.043-0.372-1.535-0.947-1.535-1.644c0-0.935,0.755-1.702,2.003-1.702c0.587,0,1.104,0.167,1.427,0.359l-0.264,0.768
			c-0.228-0.145-0.647-0.336-1.187-0.336c-0.624,0-0.972,0.359-0.972,0.791c0,0.48,0.348,0.695,1.104,0.984
			c1.007,0.383,1.523,0.887,1.523,1.75c0,1.02-0.792,1.74-2.171,1.74c-0.635,0-1.223-0.156-1.631-0.396L565.657,337.813z"/>
		<path d="M573.768,338.893l-0.084-0.73h-0.036c-0.324,0.455-0.947,0.863-1.775,0.863c-1.175,0-1.775-0.828-1.775-1.668
			c0-1.402,1.247-2.17,3.49-2.158v-0.12c0-0.479-0.132-1.343-1.319-1.343c-0.54,0-1.104,0.168-1.511,0.432l-0.24-0.695
			c0.48-0.313,1.175-0.516,1.907-0.516c1.775,0,2.207,1.211,2.207,2.374v2.171c0,0.504,0.024,0.995,0.096,1.391H573.768z
			 M573.611,335.931c-1.151-0.024-2.458,0.181-2.458,1.308c0,0.684,0.456,1.008,0.996,1.008c0.755,0,1.235-0.48,1.403-0.973
			c0.036-0.107,0.06-0.228,0.06-0.336V335.931z"/>
		<path d="M577.561,331.422v1.666h1.511v0.804h-1.511v3.13c0,0.721,0.204,1.128,0.792,1.128c0.276,0,0.479-0.036,0.612-0.071
			l0.048,0.791c-0.204,0.084-0.528,0.145-0.936,0.145c-0.492,0-0.888-0.156-1.14-0.444c-0.3-0.312-0.408-0.827-0.408-1.511v-3.167
			h-0.899v-0.804h0.899v-1.391L577.561,331.422z"/>
		<path d="M581.437,331.457c0.012,0.359-0.252,0.648-0.671,0.648c-0.372,0-0.636-0.289-0.636-0.648c0-0.371,0.276-0.66,0.66-0.66
			C581.185,330.797,581.437,331.086,581.437,331.457z M580.261,338.893v-5.805h1.056v5.805H580.261z"/>
		<path d="M588.322,335.943c0,2.146-1.487,3.082-2.89,3.082c-1.571,0-2.783-1.152-2.783-2.986c0-1.943,1.271-3.082,2.878-3.082
			C587.195,332.957,588.322,334.168,588.322,335.943z M583.716,336.002c0,1.271,0.732,2.231,1.763,2.231
			c1.007,0,1.763-0.947,1.763-2.255c0-0.983-0.492-2.23-1.739-2.23C584.256,333.748,583.716,334.899,583.716,336.002z"/>
		<path d="M589.657,334.659c0-0.6-0.012-1.091-0.048-1.571h0.936l0.06,0.96h0.024c0.288-0.552,0.959-1.091,1.919-1.091
			c0.803,0,2.051,0.479,2.051,2.47v3.466h-1.056v-3.346c0-0.936-0.348-1.715-1.343-1.715c-0.695,0-1.235,0.492-1.415,1.079
			c-0.048,0.132-0.072,0.312-0.072,0.491v3.49h-1.056V334.659z"/>
		<path d="M599.269,333.088l1.14,3.263c0.192,0.528,0.348,1.007,0.468,1.487h0.036c0.132-0.48,0.3-0.959,0.492-1.487l1.127-3.263
			h1.104l-2.279,5.805h-1.007l-2.207-5.805H599.269z"/>
		<path d="M605.808,331.457c0.012,0.359-0.252,0.648-0.671,0.648c-0.372,0-0.636-0.289-0.636-0.648c0-0.371,0.276-0.66,0.66-0.66
			C605.556,330.797,605.808,331.086,605.808,331.457z M604.633,338.893v-5.805h1.056v5.805H604.633z"/>
		<path d="M612.454,330.378v7.017c0,0.516,0.012,1.103,0.048,1.498h-0.947l-0.048-1.007h-0.024c-0.324,0.647-1.032,1.14-1.979,1.14
			c-1.403,0-2.483-1.188-2.483-2.951c-0.012-1.931,1.188-3.117,2.603-3.117c0.888,0,1.487,0.419,1.751,0.887h0.024v-3.466H612.454z
			 M611.398,335.451c0-0.133-0.012-0.313-0.048-0.443c-0.156-0.672-0.731-1.225-1.523-1.225c-1.091,0-1.739,0.96-1.739,2.244
			c0,1.175,0.576,2.146,1.715,2.146c0.708,0,1.355-0.469,1.547-1.26c0.036-0.145,0.048-0.287,0.048-0.455V335.451z"/>
		<path d="M614.796,336.183c0.024,1.427,0.935,2.015,1.991,2.015c0.755,0,1.211-0.132,1.607-0.3l0.18,0.756
			c-0.372,0.168-1.007,0.36-1.931,0.36c-1.787,0-2.854-1.176-2.854-2.928c0-1.75,1.032-3.129,2.723-3.129
			c1.895,0,2.399,1.666,2.399,2.734c0,0.215-0.024,0.383-0.036,0.491H614.796z M617.891,335.427
			c0.012-0.671-0.276-1.715-1.463-1.715c-1.067,0-1.535,0.983-1.619,1.715H617.891z"/>
		<path d="M625.473,335.943c0,2.146-1.487,3.082-2.89,3.082c-1.571,0-2.783-1.152-2.783-2.986c0-1.943,1.271-3.082,2.878-3.082
			C624.346,332.957,625.473,334.168,625.473,335.943z M620.868,336.002c0,1.271,0.732,2.231,1.763,2.231
			c1.007,0,1.763-0.947,1.763-2.255c0-0.983-0.492-2.23-1.739-2.23C621.408,333.748,620.868,334.899,620.868,336.002z"/>
	</g>
	<g>
		<path d="M551.198,128.26l1.115-5.805h0.996l-1.116,5.805H551.198z M552.493,120.836c0-0.384,0.3-0.672,0.66-0.672
			c0.36,0,0.588,0.264,0.588,0.624c-0.012,0.396-0.288,0.671-0.671,0.671C552.721,121.459,552.493,121.196,552.493,120.836z"/>
		<path d="M553.946,128.26l0.779-4.114c0.132-0.647,0.204-1.211,0.276-1.691h0.888l-0.144,1.139h0.024
			c0.516-0.815,1.295-1.271,2.147-1.271c0.696,0,1.475,0.396,1.475,1.619c0,0.251-0.048,0.624-0.108,0.935l-0.647,3.382h-0.996
			l0.636-3.346c0.048-0.228,0.084-0.504,0.084-0.744c0-0.587-0.228-1.02-0.912-1.02c-0.708,0-1.715,0.852-1.979,2.291l-0.528,2.818
			H553.946z"/>
		<path d="M561.577,122.455l0.504,3.31c0.084,0.66,0.156,1.104,0.18,1.427h0.036c0.12-0.312,0.276-0.696,0.612-1.355l1.775-3.382
			h1.091l-3.226,5.805h-0.983l-1.007-5.805H561.577z"/>
		<path d="M569.831,127.924c-0.432,0.252-1.139,0.456-1.919,0.456c-1.535,0-2.207-1.043-2.207-2.327
			c0-1.751,1.295-3.729,3.166-3.729c1.104,0,1.703,0.659,1.703,1.487c0,1.523-1.715,1.931-3.862,1.895
			c-0.048,0.252-0.012,0.792,0.12,1.104c0.228,0.516,0.696,0.779,1.295,0.779c0.684,0,1.199-0.216,1.559-0.408L569.831,127.924z
			 M568.728,123.103c-0.947,0-1.655,0.923-1.895,1.835c1.56,0.012,2.783-0.192,2.783-1.091
			C569.615,123.366,569.255,123.103,568.728,123.103z"/>
		<path d="M571.129,127.252c0.276,0.168,0.78,0.36,1.247,0.36c0.672,0,1.104-0.432,1.104-0.948c0-0.456-0.204-0.731-0.803-1.067
			c-0.672-0.372-1.043-0.887-1.043-1.475c0-1.02,0.875-1.799,2.099-1.799c0.528,0,0.996,0.144,1.211,0.288l-0.276,0.755
			c-0.204-0.12-0.576-0.264-1.007-0.264c-0.6,0-1.032,0.372-1.032,0.875c0,0.42,0.276,0.684,0.792,0.972
			c0.648,0.372,1.092,0.875,1.092,1.523c0,1.224-0.996,1.907-2.219,1.907c-0.624,0-1.176-0.192-1.439-0.396L571.129,127.252z"/>
		<path d="M578.16,120.896l-0.3,1.559h1.391l-0.156,0.779h-1.392l-0.54,2.818c-0.06,0.324-0.108,0.624-0.108,0.936
			c0,0.348,0.168,0.552,0.552,0.552c0.168,0,0.336-0.012,0.468-0.036l-0.048,0.779c-0.18,0.072-0.48,0.108-0.768,0.108
			c-0.888,0-1.224-0.54-1.224-1.127c0-0.335,0.036-0.671,0.12-1.091l0.576-2.938h-0.839l0.156-0.779h0.828l0.251-1.308
			L578.16,120.896z"/>
		<path d="M579.313,128.26l1.115-5.805h0.996l-1.116,5.805H579.313z M580.608,120.836c0-0.384,0.3-0.672,0.66-0.672
			c0.36,0,0.588,0.264,0.588,0.624c-0.012,0.396-0.288,0.671-0.671,0.671C580.836,121.459,580.608,121.196,580.608,120.836z"/>
		<path d="M582.121,129.579c0.348,0.216,0.923,0.384,1.535,0.384c0.971,0,1.739-0.504,2.086-2.075l0.192-0.864h-0.036
			c-0.504,0.828-1.211,1.235-2.015,1.235c-1.163,0-1.763-0.983-1.763-2.015c-0.012-1.967,1.439-3.922,3.682-3.922
			c0.672,0,1.403,0.192,1.859,0.408l-0.887,4.797c-0.24,1.223-0.564,2.075-1.175,2.59c-0.576,0.504-1.355,0.648-2.027,0.648
			c-0.708,0-1.368-0.168-1.739-0.408L582.121,129.579z M586.57,123.318c-0.18-0.084-0.54-0.192-0.959-0.192
			c-1.451,0-2.446,1.511-2.458,2.951c0,0.635,0.228,1.391,1.115,1.391c0.852,0,1.715-1.08,1.931-2.219L586.57,123.318z"/>
		<path d="M592.198,128.26c0-0.348,0.06-0.899,0.132-1.499h-0.024c-0.635,1.199-1.427,1.631-2.254,1.631
			c-1.02,0-1.667-0.815-1.667-1.919c0-2.015,1.487-4.149,4.018-4.149c0.552,0,1.163,0.096,1.559,0.228l-0.588,3.022
			c-0.192,1.007-0.275,2.039-0.251,2.687H592.198z M592.846,123.199c-0.144-0.036-0.36-0.084-0.696-0.084
			c-1.499,0-2.723,1.571-2.734,3.178c0,0.647,0.228,1.283,0.996,1.283c0.827,0,1.811-1.08,2.099-2.626L592.846,123.199z"/>
		<path d="M597.215,120.896l-0.3,1.559h1.391l-0.156,0.779h-1.392l-0.54,2.818c-0.06,0.324-0.108,0.624-0.108,0.936
			c0,0.348,0.168,0.552,0.552,0.552c0.168,0,0.336-0.012,0.468-0.036l-0.048,0.779c-0.18,0.072-0.48,0.108-0.768,0.108
			c-0.888,0-1.224-0.54-1.224-1.127c0-0.335,0.036-0.671,0.12-1.091l0.576-2.938h-0.839l0.156-0.779h0.828l0.251-1.308
			L597.215,120.896z"/>
		<path d="M602.506,127.924c-0.432,0.252-1.139,0.456-1.919,0.456c-1.535,0-2.207-1.043-2.207-2.327
			c0-1.751,1.295-3.729,3.166-3.729c1.104,0,1.703,0.659,1.703,1.487c0,1.523-1.715,1.931-3.862,1.895
			c-0.048,0.252-0.012,0.792,0.12,1.104c0.228,0.516,0.696,0.779,1.295,0.779c0.684,0,1.199-0.216,1.559-0.408L602.506,127.924z
			 M601.402,123.103c-0.947,0-1.655,0.923-1.895,1.835c1.56,0.012,2.783-0.192,2.783-1.091
			C602.29,123.366,601.93,123.103,601.402,123.103z"/>
		<path d="M603.804,127.252c0.276,0.168,0.78,0.36,1.247,0.36c0.672,0,1.104-0.432,1.104-0.948c0-0.456-0.204-0.731-0.803-1.067
			c-0.672-0.372-1.043-0.887-1.043-1.475c0-1.02,0.875-1.799,2.099-1.799c0.528,0,0.996,0.144,1.211,0.288l-0.276,0.755
			c-0.204-0.12-0.576-0.264-1.007-0.264c-0.6,0-1.032,0.372-1.032,0.875c0,0.42,0.276,0.684,0.792,0.972
			c0.648,0.372,1.092,0.875,1.092,1.523c0,1.224-0.996,1.907-2.219,1.907c-0.624,0-1.176-0.192-1.439-0.396L603.804,127.252z"/>
	</g>
</g>
<g id="Layer_4">
	<path fill="#E6E6E6" d="M28.555,16.49h70.13c7.15,0,12.95,5.46,12.95,12.21v407.6c0,6.75-5.8,12.21-12.949,12.21h-70.13
		c-7.15,0-12.95-5.46-12.95-12.21V28.7C15.605,21.95,21.405,16.49,28.555,16.49z"/>
	<g>
		<line fill="none" stroke="#000000" stroke-miterlimit="10" x1="84.251" y1="368.553" x2="42.99" y2="386.432"/>
		<line fill="none" stroke="#000000" stroke-miterlimit="10" x1="42.99" y1="404.312" x2="84.251" y2="386.432"/>
		<line fill="none" stroke="#000000" stroke-miterlimit="10" x1="42.99" y1="386.432" x2="84.251" y2="404.312"/>
		<line fill="none" stroke="#000000" stroke-miterlimit="10" x1="42.99" y1="368.553" x2="84.251" y2="386.432"/>
		<circle stroke="#E6E6E6" stroke-miterlimit="10" cx="42.99" cy="368.553" r="6.877"/>
		<circle stroke="#E6E6E6" stroke-miterlimit="10" cx="42.99" cy="386.432" r="6.877"/>
		<circle stroke="#E6E6E6" stroke-miterlimit="10" cx="42.99" cy="404.312" r="6.877"/>
		<circle stroke="#E6E6E6" stroke-miterlimit="10" cx="63.62" cy="377.492" r="6.877"/>
		<circle stroke="#E6E6E6" stroke-miterlimit="10" cx="63.62" cy="395.372" r="6.877"/>
		<circle stroke="#E6E6E6" stroke-miterlimit="10" cx="84.25" cy="368.553" r="6.876"/>
		<circle stroke="#E6E6E6" stroke-miterlimit="10" cx="84.25" cy="386.432" r="6.876"/>
		<circle stroke="#E6E6E6" stroke-miterlimit="10" cx="84.25" cy="404.312" r="6.876"/>
	</g>
	<g>
		<g>
			<rect x="48.5" y="271.5" fill="#FFFFFF" stroke="#000000" stroke-miterlimit="10" width="51" height="35"/>
			<rect x="45.5" y="274.5" fill="#FFFFFF" stroke="#000000" stroke-miterlimit="10" width="51" height="35"/>
			<rect x="42.5" y="277.5" fill="#FFFFFF" stroke="#000000" stroke-miterlimit="10" width="51" height="35"/>
			<rect x="39.5" y="280.5" fill="#FFFFFF" stroke="#000000" stroke-miterlimit="10" width="51" height="35"/>
			<rect x="36.5" y="283.5" fill="#FFFFFF" stroke="#000000" stroke-miterlimit="10" width="51" height="35"/>
			<rect x="33.5" y="286.5" fill="#FFFFFF" stroke="#000000" stroke-miterlimit="10" width="51" height="35"/>
			<rect x="30.5" y="289.5" fill="#FFFFFF" stroke="#000000" stroke-miterlimit="10" width="51" height="35"/>
		</g>
		<g>
			<rect x="27.5" y="292.5" fill="#FFFFFF" stroke="#000000" stroke-miterlimit="10" width="51" height="35"/>
			
				<rect x="34.378" y="297.016" display="none" fill="none" stroke="#000000" stroke-miterlimit="10" width="41.811" height="25.729"/>
			<polygon points="32.93,322.745 43.383,304.404 58.659,314.972 64.747,308.999 74.74,322.745 			"/>
			<circle cx="69.725" cy="303.025" r="2.794"/>
		</g>
	</g>
	<g>
		<g>
			<rect x="48.5" y="176.5" fill="#FFFFFF" stroke="#000000" stroke-miterlimit="10" width="51" height="35"/>
			<rect x="45.5" y="179.5" fill="#FFFFFF" stroke="#000000" stroke-miterlimit="10" width="51" height="35"/>
			<rect x="42.5" y="182.5" fill="#FFFFFF" stroke="#000000" stroke-miterlimit="10" width="51" height="35"/>
			<rect x="39.5" y="185.5" fill="#FFFFFF" stroke="#000000" stroke-miterlimit="10" width="51" height="35"/>
			<rect x="36.5" y="188.5" fill="#FFFFFF" stroke="#000000" stroke-miterlimit="10" width="51" height="35"/>
			<rect x="33.5" y="191.5" fill="#FFFFFF" stroke="#000000" stroke-miterlimit="10" width="51" height="35"/>
			<rect x="30.5" y="194.5" fill="#FFFFFF" stroke="#000000" stroke-miterlimit="10" width="51" height="35"/>
		</g>
		<g>
			<rect x="27.5" y="197.5" fill="#FFFFFF" stroke="#000000" stroke-miterlimit="10" width="51" height="35"/>
			
				<rect x="33.747" y="202.384" display="none" fill="none" stroke="#000000" stroke-miterlimit="10" width="41.811" height="25.729"/>
			<polygon points="32.299,228.113 42.752,209.772 58.028,220.34 64.116,214.367 74.109,228.113 			"/>
			<circle cx="69.094" cy="208.394" r="2.794"/>
		</g>
	</g>
	<g>
		<path d="M58.805,430.414c-0.384,0.192-1.151,0.385-2.135,0.385c-2.279,0-3.994-1.439-3.994-4.09c0-2.531,1.715-4.246,4.222-4.246
			c1.008,0,1.643,0.216,1.919,0.359l-0.252,0.852c-0.396-0.191-0.959-0.336-1.631-0.336c-1.895,0-3.154,1.212-3.154,3.334
			c0,1.979,1.139,3.251,3.106,3.251c0.636,0,1.283-0.132,1.703-0.336L58.805,430.414z"/>
		<path d="M60.116,430.678v-8.083h1.139l2.591,4.09c0.6,0.947,1.067,1.799,1.451,2.626l0.024-0.012
			c-0.096-1.079-0.12-2.063-0.12-3.322v-3.382h0.983v8.083h-1.055l-2.566-4.102c-0.564-0.899-1.104-1.822-1.511-2.698l-0.036,0.013
			c0.06,1.019,0.084,1.99,0.084,3.334v3.453H60.116z"/>
		<path d="M68.011,430.678v-8.083h1.139l2.591,4.09c0.6,0.947,1.067,1.799,1.451,2.626l0.024-0.012
			c-0.096-1.079-0.12-2.063-0.12-3.322v-3.382h0.983v8.083h-1.055l-2.566-4.102c-0.564-0.899-1.104-1.822-1.511-2.698l-0.036,0.013
			c0.06,1.019,0.084,1.99,0.084,3.334v3.453H68.011z"/>
	</g>
	<g>
		<path d="M34.495,336.646h-2.459v-0.888h5.985v0.888H35.55v7.196h-1.055V336.646z"/>
		<path d="M38.347,339.848c0-0.684-0.012-1.271-0.048-1.811h0.923l0.036,1.139h0.048c0.264-0.779,0.899-1.271,1.607-1.271
			c0.12,0,0.204,0.012,0.3,0.036v0.995c-0.108-0.023-0.216-0.035-0.36-0.035c-0.744,0-1.271,0.563-1.416,1.355
			c-0.024,0.144-0.048,0.311-0.048,0.491v3.095h-1.043V339.848z"/>
		<path d="M45.426,343.842l-0.084-0.732h-0.036c-0.324,0.456-0.947,0.863-1.775,0.863c-1.175,0-1.775-0.827-1.775-1.666
			c0-1.404,1.247-2.172,3.49-2.159v-0.12c0-0.479-0.132-1.344-1.319-1.344c-0.54,0-1.104,0.168-1.511,0.432l-0.24-0.695
			c0.48-0.312,1.175-0.516,1.907-0.516c1.775,0,2.207,1.211,2.207,2.375v2.171c0,0.503,0.024,0.995,0.096,1.392H45.426z
			 M45.27,340.879c-1.151-0.023-2.458,0.18-2.458,1.307c0,0.684,0.456,1.008,0.996,1.008c0.755,0,1.235-0.479,1.403-0.971
			c0.036-0.108,0.06-0.229,0.06-0.336V340.879z"/>
		<path d="M49.17,336.405c0.012,0.36-0.252,0.647-0.671,0.647c-0.372,0-0.636-0.287-0.636-0.647c0-0.372,0.276-0.659,0.66-0.659
			C48.918,335.746,49.17,336.033,49.17,336.405z M47.995,343.842v-5.805h1.056v5.805H47.995z"/>
		<path d="M50.803,339.607c0-0.6-0.012-1.092-0.048-1.57h0.936l0.06,0.959h0.024c0.288-0.552,0.959-1.092,1.919-1.092
			c0.803,0,2.051,0.48,2.051,2.471v3.467h-1.056v-3.347c0-0.936-0.348-1.715-1.343-1.715c-0.695,0-1.235,0.491-1.415,1.079
			c-0.048,0.132-0.072,0.313-0.072,0.492v3.49h-1.056V339.607z"/>
		<path d="M61.182,336.405c0.012,0.36-0.252,0.647-0.671,0.647c-0.372,0-0.636-0.287-0.636-0.647c0-0.372,0.276-0.659,0.66-0.659
			C60.93,335.746,61.182,336.033,61.182,336.405z M60.007,343.842v-5.805h1.056v5.805H60.007z"/>
		<path d="M62.815,339.607c0-0.6-0.012-1.092-0.048-1.57h0.923l0.048,0.936h0.036c0.324-0.553,0.864-1.068,1.823-1.068
			c0.792,0,1.391,0.48,1.643,1.164h0.024c0.18-0.324,0.408-0.576,0.647-0.756c0.348-0.264,0.731-0.408,1.283-0.408
			c0.768,0,1.907,0.504,1.907,2.52v3.418h-1.032v-3.287c0-1.115-0.408-1.787-1.259-1.787c-0.6,0-1.067,0.444-1.247,0.96
			c-0.048,0.144-0.084,0.336-0.084,0.528v3.586h-1.031v-3.479c0-0.924-0.408-1.596-1.211-1.596c-0.66,0-1.14,0.528-1.308,1.057
			c-0.06,0.155-0.084,0.335-0.084,0.516v3.502h-1.031V339.607z"/>
		<path d="M76.037,343.842l-0.084-0.732h-0.036c-0.324,0.456-0.947,0.863-1.775,0.863c-1.175,0-1.775-0.827-1.775-1.666
			c0-1.404,1.247-2.172,3.49-2.159v-0.12c0-0.479-0.132-1.344-1.319-1.344c-0.54,0-1.104,0.168-1.511,0.432l-0.24-0.695
			c0.48-0.312,1.175-0.516,1.907-0.516c1.775,0,2.207,1.211,2.207,2.375v2.171c0,0.503,0.024,0.995,0.096,1.392H76.037z
			 M75.881,340.879c-1.151-0.023-2.458,0.18-2.458,1.307c0,0.684,0.456,1.008,0.996,1.008c0.755,0,1.235-0.479,1.403-0.971
			c0.036-0.108,0.06-0.229,0.06-0.336V340.879z"/>
		<path d="M83.608,338.037c-0.024,0.419-0.048,0.887-0.048,1.595v3.37c0,1.331-0.264,2.146-0.827,2.65
			c-0.564,0.527-1.379,0.695-2.111,0.695c-0.696,0-1.463-0.168-1.931-0.479l0.264-0.804c0.384,0.24,0.984,0.456,1.703,0.456
			c1.08,0,1.871-0.563,1.871-2.026v-0.648h-0.024c-0.324,0.54-0.948,0.972-1.847,0.972c-1.439,0-2.471-1.224-2.471-2.831
			c0-1.967,1.284-3.082,2.615-3.082c1.007,0,1.559,0.527,1.811,1.008h0.024l0.048-0.875H83.608z M82.517,340.327
			c0-0.18-0.012-0.336-0.06-0.479c-0.192-0.611-0.708-1.115-1.476-1.115c-1.007,0-1.727,0.852-1.727,2.194
			c0,1.14,0.576,2.087,1.715,2.087c0.647,0,1.235-0.408,1.463-1.079c0.06-0.181,0.084-0.384,0.084-0.563V340.327z"/>
		<path d="M85.903,341.131c0.024,1.428,0.935,2.015,1.991,2.015c0.755,0,1.211-0.132,1.607-0.3l0.18,0.756
			c-0.372,0.168-1.007,0.359-1.931,0.359c-1.787,0-2.854-1.175-2.854-2.926c0-1.752,1.032-3.131,2.723-3.131
			c1.895,0,2.399,1.668,2.399,2.734c0,0.217-0.024,0.385-0.036,0.492H85.903z M88.997,340.375c0.012-0.672-0.276-1.715-1.463-1.715
			c-1.067,0-1.535,0.983-1.619,1.715H88.997z"/>
		<path d="M91.183,342.762c0.312,0.204,0.864,0.42,1.392,0.42c0.768,0,1.127-0.384,1.127-0.863c0-0.504-0.3-0.779-1.079-1.067
			c-1.043-0.372-1.535-0.948-1.535-1.644c0-0.936,0.755-1.703,2.003-1.703c0.587,0,1.104,0.168,1.427,0.359l-0.264,0.768
			c-0.228-0.143-0.647-0.335-1.187-0.335c-0.624,0-0.972,0.36-0.972,0.792c0,0.479,0.348,0.695,1.104,0.982
			c1.007,0.385,1.523,0.889,1.523,1.752c0,1.02-0.792,1.738-2.171,1.738c-0.635,0-1.223-0.156-1.631-0.396L91.183,342.762z"/>
	</g>
	<g>
		<path d="M36.841,242.014h-2.459v-0.888h5.985v0.888h-2.471v7.195h-1.055V242.014z"/>
		<path d="M40.969,246.499c0.024,1.427,0.936,2.015,1.991,2.015c0.755,0,1.211-0.132,1.607-0.3l0.18,0.756
			c-0.372,0.168-1.007,0.36-1.931,0.36c-1.787,0-2.854-1.176-2.854-2.928c0-1.75,1.032-3.129,2.723-3.129
			c1.895,0,2.399,1.666,2.399,2.734c0,0.215-0.024,0.383-0.036,0.491H40.969z M44.063,245.743c0.012-0.671-0.276-1.715-1.463-1.715
			c-1.067,0-1.535,0.983-1.619,1.715H44.063z"/>
		<path d="M46.25,248.13c0.312,0.204,0.864,0.42,1.392,0.42c0.768,0,1.127-0.384,1.127-0.863c0-0.504-0.3-0.78-1.079-1.067
			c-1.043-0.372-1.535-0.947-1.535-1.644c0-0.935,0.755-1.702,2.003-1.702c0.587,0,1.104,0.167,1.427,0.359L49.32,244.4
			c-0.228-0.145-0.647-0.336-1.187-0.336c-0.624,0-0.972,0.359-0.972,0.791c0,0.48,0.348,0.695,1.104,0.984
			c1.007,0.383,1.523,0.887,1.523,1.75c0,1.02-0.792,1.74-2.171,1.74c-0.635,0-1.223-0.156-1.631-0.396L46.25,248.13z"/>
		<path d="M52.417,241.738v1.667h1.511v0.804h-1.511v3.13c0,0.721,0.204,1.128,0.792,1.128c0.276,0,0.479-0.036,0.611-0.071
			l0.048,0.791c-0.204,0.084-0.528,0.145-0.936,0.145c-0.492,0-0.888-0.156-1.14-0.444c-0.3-0.312-0.408-0.827-0.408-1.511v-3.167
			h-0.899v-0.804h0.899v-1.391L52.417,241.738z"/>
		<path d="M58.836,241.773c0.012,0.359-0.252,0.648-0.671,0.648c-0.372,0-0.636-0.289-0.636-0.648c0-0.372,0.276-0.66,0.66-0.66
			C58.584,241.114,58.836,241.402,58.836,241.773z M57.661,249.209v-5.805h1.056v5.805H57.661z"/>
		<path d="M60.469,244.976c0-0.6-0.012-1.091-0.048-1.571h0.923l0.048,0.936h0.036c0.324-0.551,0.864-1.066,1.823-1.066
			c0.792,0,1.391,0.479,1.643,1.162h0.024c0.18-0.323,0.408-0.575,0.647-0.755c0.348-0.265,0.731-0.407,1.283-0.407
			c0.768,0,1.907,0.503,1.907,2.518v3.418h-1.032v-3.285c0-1.115-0.408-1.787-1.259-1.787c-0.6,0-1.067,0.443-1.247,0.959
			c-0.048,0.145-0.084,0.336-0.084,0.527v3.586h-1.032v-3.478c0-0.923-0.408-1.595-1.211-1.595c-0.66,0-1.14,0.527-1.308,1.055
			c-0.06,0.156-0.084,0.336-0.084,0.516v3.502h-1.031V244.976z"/>
		<path d="M73.691,249.209l-0.084-0.73h-0.036c-0.324,0.455-0.947,0.863-1.775,0.863c-1.175,0-1.775-0.828-1.775-1.668
			c0-1.402,1.247-2.17,3.49-2.158v-0.12c0-0.479-0.132-1.343-1.319-1.343c-0.54,0-1.103,0.168-1.511,0.432l-0.24-0.695
			c0.48-0.313,1.176-0.516,1.907-0.516c1.775,0,2.207,1.211,2.207,2.374v2.171c0,0.504,0.024,0.995,0.096,1.391H73.691z
			 M73.536,246.247c-1.151-0.024-2.459,0.18-2.459,1.308c0,0.684,0.456,1.008,0.996,1.008c0.755,0,1.235-0.48,1.403-0.973
			c0.036-0.107,0.06-0.228,0.06-0.336V246.247z"/>
		<path d="M81.262,243.404c-0.024,0.42-0.048,0.888-0.048,1.596v3.37c0,1.331-0.264,2.146-0.827,2.65
			c-0.564,0.528-1.379,0.696-2.111,0.696c-0.696,0-1.463-0.168-1.931-0.48l0.264-0.804c0.384,0.24,0.984,0.456,1.703,0.456
			c1.08,0,1.871-0.564,1.871-2.027v-0.647h-0.024c-0.324,0.54-0.948,0.972-1.847,0.972c-1.439,0-2.471-1.224-2.471-2.83
			c0-1.967,1.284-3.082,2.615-3.082c1.007,0,1.559,0.527,1.811,1.007h0.024l0.048-0.876H81.262z M80.17,245.695
			c0-0.18-0.012-0.336-0.06-0.479c-0.192-0.612-0.708-1.116-1.476-1.116c-1.007,0-1.727,0.852-1.727,2.195
			c0,1.14,0.576,2.087,1.715,2.087c0.647,0,1.235-0.407,1.463-1.079c0.06-0.18,0.084-0.384,0.084-0.564V245.695z"/>
		<path d="M83.557,246.499c0.024,1.427,0.935,2.015,1.991,2.015c0.755,0,1.211-0.132,1.607-0.3l0.18,0.756
			c-0.372,0.168-1.007,0.36-1.931,0.36c-1.787,0-2.854-1.176-2.854-2.928c0-1.75,1.032-3.129,2.723-3.129
			c1.895,0,2.399,1.666,2.399,2.734c0,0.215-0.024,0.383-0.036,0.491H83.557z M86.651,245.743c0.012-0.671-0.276-1.715-1.463-1.715
			c-1.067,0-1.535,0.983-1.619,1.715H86.651z"/>
		<path d="M88.837,248.13c0.312,0.204,0.864,0.42,1.392,0.42c0.768,0,1.127-0.384,1.127-0.863c0-0.504-0.3-0.78-1.079-1.067
			c-1.043-0.372-1.535-0.947-1.535-1.644c0-0.935,0.755-1.702,2.003-1.702c0.587,0,1.103,0.167,1.427,0.359l-0.264,0.768
			c-0.228-0.145-0.647-0.336-1.187-0.336c-0.624,0-0.972,0.359-0.972,0.791c0,0.48,0.348,0.695,1.104,0.984
			c1.007,0.383,1.523,0.887,1.523,1.75c0,1.02-0.792,1.74-2.171,1.74c-0.635,0-1.223-0.156-1.631-0.396L88.837,248.13z"/>
	</g>
	<g>
		<path d="M52.081,119.744l-0.768,3.766h0.024c0.516-0.779,1.259-1.187,2.039-1.187c1.271,0,1.751,1.055,1.751,2.086
			c0,1.775-1.283,3.982-3.61,3.982c-1.02,0-1.787-0.42-1.787-1.499c0-0.276,0.048-0.624,0.096-0.899l1.259-6.249H52.081z
			 M50.821,126.017c-0.048,0.192-0.084,0.432-0.072,0.731c0,0.552,0.312,0.864,0.936,0.864c1.499,0,2.411-1.787,2.411-3.07
			c0-0.72-0.312-1.392-1.104-1.392c-0.864,0-1.751,0.888-2.039,2.255L50.821,126.017z"/>
		<path d="M61.475,122.455l-0.779,4.114c-0.12,0.647-0.204,1.211-0.264,1.691h-0.899l0.156-1.091h-0.024
			c-0.516,0.755-1.283,1.223-2.051,1.223c-0.744,0-1.523-0.36-1.523-1.679c0-0.276,0.036-0.587,0.108-0.971l0.624-3.286h0.996
			l-0.612,3.238c-0.072,0.324-0.108,0.6-0.108,0.852c0,0.6,0.252,1.007,0.936,1.007c0.72,0,1.643-0.84,1.883-2.123l0.564-2.974
			H61.475z"/>
		<path d="M62.126,128.259l1.115-5.805h0.996l-1.116,5.805H62.126z M63.421,120.835c0-0.384,0.3-0.672,0.659-0.672
			c0.36,0,0.588,0.264,0.588,0.624c-0.012,0.396-0.288,0.671-0.672,0.671C63.649,121.459,63.421,121.195,63.421,120.835z"/>
		<path d="M64.885,128.259l1.619-8.515H67.5l-1.631,8.515H64.885z"/>
		<path d="M73.798,119.744l-1.271,6.68c-0.12,0.6-0.216,1.271-0.252,1.835h-0.912l0.156-1.151h-0.024
			c-0.527,0.828-1.259,1.283-2.086,1.283c-1.127,0-1.739-0.923-1.739-2.111c0-2.063,1.535-3.958,3.586-3.958
			c0.372,0,0.78,0.084,1.032,0.204l0.516-2.782H73.798z M72.131,123.366c-0.204-0.132-0.54-0.24-0.959-0.24
			c-1.391,0-2.471,1.475-2.471,3.022c0,0.696,0.24,1.427,1.092,1.427c0.768,0,1.691-0.875,1.943-2.183L72.131,123.366z"/>
		<path d="M73.969,127.252c0.276,0.168,0.78,0.36,1.247,0.36c0.672,0,1.104-0.432,1.104-0.948c0-0.456-0.204-0.731-0.803-1.067
			c-0.672-0.372-1.043-0.887-1.043-1.475c0-1.02,0.875-1.799,2.099-1.799c0.528,0,0.996,0.144,1.211,0.288l-0.276,0.755
			c-0.204-0.12-0.576-0.264-1.007-0.264c-0.6,0-1.032,0.372-1.032,0.875c0,0.42,0.276,0.684,0.792,0.972
			c0.648,0.372,1.092,0.875,1.092,1.523c0,1.224-0.996,1.907-2.219,1.907c-0.624,0-1.176-0.192-1.439-0.396L73.969,127.252z"/>
	</g>
	<g>
		<path d="M52.476,107.655h-3.142v2.915h3.502v0.875H48.29v-8.083h4.366v0.875h-3.322v2.555h3.142V107.655z"/>
		<path d="M54.649,105.641l0.828,1.247c0.216,0.324,0.396,0.624,0.588,0.948h0.036c0.192-0.348,0.384-0.648,0.576-0.959l0.815-1.235
			h1.14l-1.979,2.806l2.039,2.999h-1.2l-0.852-1.307c-0.228-0.336-0.419-0.66-0.624-1.008h-0.024
			c-0.192,0.348-0.396,0.66-0.612,1.008l-0.839,1.307h-1.163l2.063-2.962l-1.967-2.842H54.649z"/>
		<path d="M59.714,107.536c0-0.744-0.024-1.343-0.048-1.895h0.947l0.048,0.995h0.024c0.432-0.708,1.115-1.127,2.063-1.127
			c1.403,0,2.459,1.187,2.459,2.95c0,2.087-1.271,3.118-2.639,3.118c-0.768,0-1.439-0.336-1.787-0.912h-0.024v3.154h-1.043V107.536z
			 M60.757,109.083c0,0.156,0.024,0.3,0.048,0.432c0.192,0.732,0.828,1.235,1.583,1.235c1.116,0,1.763-0.911,1.763-2.243
			c0-1.163-0.612-2.159-1.727-2.159c-0.72,0-1.391,0.516-1.595,1.307c-0.036,0.132-0.072,0.288-0.072,0.432V109.083z"/>
		<path d="M67.129,108.735c0.024,1.427,0.936,2.015,1.991,2.015c0.755,0,1.211-0.132,1.607-0.3l0.18,0.756
			c-0.372,0.168-1.007,0.36-1.931,0.36c-1.787,0-2.854-1.176-2.854-2.927s1.032-3.13,2.723-3.13c1.895,0,2.399,1.667,2.399,2.734
			c0,0.216-0.024,0.384-0.036,0.492H67.129z M70.224,107.979c0.012-0.671-0.276-1.715-1.463-1.715c-1.067,0-1.535,0.983-1.619,1.715
			H70.224z"/>
		<path d="M72.554,107.452c0-0.684-0.012-1.271-0.048-1.811h0.923l0.036,1.139h0.048c0.264-0.779,0.899-1.271,1.607-1.271
			c0.12,0,0.204,0.012,0.3,0.036v0.996c-0.108-0.024-0.216-0.036-0.36-0.036c-0.744,0-1.271,0.564-1.416,1.355
			c-0.024,0.144-0.048,0.312-0.048,0.492v3.094h-1.043V107.452z"/>
		<path d="M78.037,103.974v1.667h1.511v0.803h-1.511v3.13c0,0.72,0.204,1.127,0.792,1.127c0.276,0,0.479-0.036,0.612-0.072
			l0.048,0.792c-0.204,0.084-0.528,0.144-0.936,0.144c-0.492,0-0.888-0.156-1.14-0.444c-0.3-0.312-0.408-0.828-0.408-1.511v-3.167
			h-0.899v-0.803h0.899v-1.392L78.037,103.974z"/>
	</g>
	<g>
		<g>
			<path stroke="#E6E6E6" stroke-miterlimit="10" d="M72.024,83.335c0,0.009,0,0.009,0,0.019c-0.008,4.783-4.879,8.664-10.879,8.664
				c-5.791,0-10.522-3.612-10.853-8.161l10.931-41.814L72.024,83.335z"/>
			<circle stroke="#E6E6E6" stroke-width="2" stroke-miterlimit="10" cx="60.711" cy="51.81" r="11.532"/>
		</g>
		<path fill="#FFFFFF" stroke="#000000" stroke-miterlimit="10" d="M82.27,65.435c0,2.797-2.264,5.061-5.06,5.061
			c-0.315,0-0.626-0.03-0.927-0.086l-8.005,11.199l-0.004,0.011l-0.646,0.896l-0.003,0.007c-0.573,0.559-1.36,0.903-2.223,0.903
			c-1.758,0-3.186-1.428-3.186-3.186c0-0.803,0.296-1.537,0.794-2.099l0.139-0.154l9.404-10.565
			c-0.263-0.611-0.404-1.282-0.404-1.987c0-2.796,2.263-5.06,5.06-5.06c0.394,0,0.779,0.045,1.146,0.132L75.11,64.79l3.238,2.456
			l3.262-4.311C82.03,63.674,82.27,64.524,82.27,65.435z"/>
	</g>
</g>
</svg>
